<svg width="20" height="31" viewBox="0 0 20 31" fill="none" xmlns="http://www.w3.org/2000/svg">
<path d="M5.0252 17.9868V17.4868H4.5252H0.5V12.6094H4.5252H5.0252V12.1094V9.57933C5.0252 6.38874 5.84769 4.15591 7.46498 2.70801C9.09415 1.24946 11.6253 0.5 15.2348 0.5C16.4338 0.5 18.4114 0.685614 19.5 0.882286V5.2711C18.9669 5.24549 18.2667 5.23317 17.4631 5.23317C15.6354 5.23317 14.2351 5.53069 13.2975 6.33749C12.3396 7.16168 11.9786 8.41407 11.9786 10.03V12.1094V12.6094H12.4786H19.0276L18.0034 17.4868H12.4786H11.9786V17.9868V30.2692H5.0252V17.9868Z" fill="#A79351" stroke="#A79351"/>
</svg>
