<svg width="35" height="28" viewBox="0 0 35 28" fill="none" xmlns="http://www.w3.org/2000/svg">
<path d="M34.2695 4.38229C33.8658 2.65417 32.6803 1.29792 31.1745 0.838542C28.4447 0 17.5 0 17.5 0C17.5 0 6.55529 0 3.82552 0.838542C2.31966 1.29792 1.1342 2.65417 0.730502 4.38229C0 7.51042 0 14.0292 0 14.0292C0 14.0292 0 20.5479 0.730502 23.676C1.1342 25.4042 2.31966 26.7021 3.82552 27.1615C6.55529 28 17.5 28 17.5 28C17.5 28 28.4447 28 31.1745 27.1615C32.6803 26.7021 33.8658 25.3969 34.2695 23.676C35 20.5479 35 14.0292 35 14.0292C35 14.0292 35 7.51042 34.2695 4.38229ZM13.9244 19.95V8.10833L23.0685 14.0292L13.9244 19.95Z" fill="#A79351"/>
</svg>
