<svg width="100" height="100" viewBox="0 0 100 100" fill="none" xmlns="http://www.w3.org/2000/svg">
<path d="M42.2127 3.55968C27.8449 7.83154 15.0288 20.3882 8.13227 36.8283C5.43112 43.4302 4.16675 48.6082 4.16675 53.5273C4.16675 58.1875 5.14376 61.0354 7.55755 63.3008C9.10928 64.7247 9.97135 65.0484 12.6725 65.0484C14.684 65.0484 16.9254 64.5306 18.4196 63.7539C19.7989 63.0419 20.8334 62.7183 20.7185 62.9772C20.6035 63.2361 19.569 65.6309 18.3622 68.2846C16.1782 73.2037 15.6035 77.7992 16.8104 79.9351C17.2702 80.7118 17.3851 80.7118 17.3851 79.6115C17.3851 77.1519 20.7759 71.7798 27.1553 64.0775C34.569 55.1454 39.2242 48.8024 40.6035 45.8251C42.6725 41.2296 41.0633 38.5111 36.2932 38.5111C33.707 38.5111 33.6495 38.5111 32.9599 41.2296C31.9254 45.1778 28.8219 50.6794 24.7415 55.7927C19.2817 62.6535 14.8564 64.9836 12.1553 62.5241C10.0288 60.5823 10.2587 54.6924 12.73 48.0257C17.2127 36.0516 27.7874 19.5467 35.6035 12.2976C44.8564 3.68914 55.3162 1.42377 55.3162 7.96098C55.3162 8.80241 54.7989 10.55 54.1093 11.715C52.3277 15.016 45.2012 22.1357 41.9254 23.8833L38.9369 25.4367L40.5461 26.1487C45.2587 28.1552 52.615 25.9545 57.2127 21.1001C60.5461 17.605 62.1553 14.0451 62.2127 10.1616C62.2127 6.73121 60.1438 4.07748 56.6955 2.97717C53.3047 1.94157 46.9254 2.20046 42.2127 3.55968Z" fill="#FAFAFA"/>
<path d="M93.2472 27.8963C91.8104 28.4788 87.3851 28.7377 77.4426 28.8025C61.7529 28.8025 54.2816 29.5144 49.2242 31.3914C45.6035 32.7507 42.0977 35.9222 42.0977 37.7992C42.1552 38.7054 42.2127 38.7054 42.7299 37.6698C43.7644 35.728 46.8104 34.4335 50.4311 34.3688C55.1437 34.3688 55.546 34.7571 54.2242 37.7992C52.9023 40.7118 47.615 48.3494 41.2357 56.5047C37.3851 61.4885 36.3506 62.4594 34.9138 62.4594C32.3851 62.4594 29.1667 63.6245 27.615 65.0484C26.8678 65.7604 26.5805 66.2782 26.9828 66.3429C27.3276 66.3429 27.8449 66.0193 28.0173 65.6956C28.477 64.8542 32.7299 64.8542 33.1897 65.6309C33.3621 65.9545 32.0977 68.4141 30.3161 71.0031C28.592 73.5921 25.8334 78.5112 24.1667 81.8122C21.638 86.9901 21.1207 88.6083 20.9483 91.974C20.8334 94.1746 21.0058 96.5047 21.3506 97.152C21.8678 98.2523 21.9253 98.2523 21.9828 97.2814C21.9828 95.4044 26.0058 87.5727 29.1667 83.1714C30.8334 80.8413 34.1092 76.6989 36.4081 73.9157L40.6609 68.8024L42.4426 69.838C46.7529 72.2976 51.6954 72.3623 55.7759 69.9675C57.8449 68.7377 61.7529 64.5953 62.7299 62.5889C63.3046 61.4238 63.1322 61.4238 59.8563 62.9125C57.0977 64.1423 55.4311 64.4659 51.1782 64.4659C48.3046 64.4659 45.8334 64.2717 45.6609 64.1423C45.4885 63.9481 46.638 62.1358 48.1897 60.1293C55.3161 50.9384 59.9138 42.7183 59.9138 39.1584C59.9138 38.2523 59.5115 36.8283 58.9943 36.0516C58.1322 34.6924 58.1897 34.6277 59.7414 34.6277C60.6035 34.6277 64.2816 35.2102 67.9023 35.9222C76.6954 37.6698 87.9598 37.6698 91.2931 35.9869C94.2816 34.4335 96.1207 31.8445 96.1207 29.0613C96.1207 26.6665 96.1207 26.6665 93.2472 27.8963Z" fill="#FAFAFA"/>
</svg>
