<svg width="839" height="153" viewBox="0 0 839 153" fill="none" xmlns="http://www.w3.org/2000/svg">
<path opacity="0.788235" d="M140.663 26.6086L144.398 26.9782L140.663 27.3478V26.6086Z" fill="#A79351" stroke="#A79351"/>
<path opacity="0.788235" d="M148.962 26.6086L152.696 26.9782L148.962 27.3478V26.6086Z" fill="#A79351" stroke="#A79351"/>
<path opacity="0.788235" d="M135.684 27.3479L137.759 27.7175L135.684 28.087V27.3479Z" fill="#A79351" stroke="#A79351"/>
<path opacity="0.788235" d="M132.365 28.0869L134.439 28.4565L132.365 28.826V28.0869Z" fill="#A79351" stroke="#A79351"/>
<path opacity="0.788235" d="M144.812 28.0869L148.547 28.4565L144.812 28.826V28.0869Z" fill="#A79351" stroke="#A79351"/>
<path opacity="0.788235" d="M150.622 28.8262L152.281 31.0436" stroke="#A79351"/>
<path opacity="0.788235" d="M158.92 28.8262L161.41 31.7827" stroke="#A79351"/>
<path opacity="0.788235" d="M153.112 31.7827L153.527 33.6305H152.696L153.112 31.7827Z" fill="#A79351" stroke="#A79351"/>
<path opacity="0.788235" d="M131.535 32.5217L130.705 34L128.215 35.4783L129.875 33.2609L131.535 32.5217Z" fill="#A79351" stroke="#A79351"/>
<path opacity="0.788235" d="M114.108 35.4783L113.277 36.9565" stroke="#A79351"/>
<path opacity="0.788235" d="M125.725 36.2173L124.066 38.4347" stroke="#A79351"/>
<path opacity="0.788235" d="M110.789 37.6956L109.958 39.1738" stroke="#A79351"/>
<path opacity="0.788235" d="M122.406 38.4348L120.746 40.6522" stroke="#A79351"/>
<path opacity="0.788235" d="M108.298 39.1738L106.638 41.3912" stroke="#A79351"/>
<path opacity="0.788235" d="M149.792 39.1738L141.493 47.3043" stroke="#A79351"/>
<path opacity="0.788235" d="M118.257 42.1304L115.767 45.0869" stroke="#A79351"/>
<path opacity="0.788235" d="M160.58 42.1304L160.165 43.2391L158.92 45.0869L159.335 43.9782L160.58 42.1304Z" fill="#A79351" stroke="#A79351"/>
<path opacity="0.788235" d="M103.319 42.8696L98.3398 48.0435" stroke="#A79351"/>
<path opacity="0.788235" d="M114.107 46.5652L109.958 51" stroke="#A79351"/>
<path opacity="0.788235" d="M139.004 48.0435L138.174 49.5217" stroke="#A79351"/>
<path opacity="0.788235" d="M153.941 48.7827L152.281 51.0001" stroke="#A79351"/>
<path opacity="0.788235" d="M96.6801 49.5217L93.3606 53.2174" stroke="#A79351"/>
<path opacity="0.788235" d="M136.515 49.5217L135.684 51" stroke="#A79351"/>
<path opacity="0.788235" d="M434.438 49.5217L434.854 111.978H434.023L434.438 49.5217Z" fill="#A79351" stroke="#A79351"/>
<path opacity="0.788235" d="M437.758 49.5217L438.173 111.978H437.342L437.758 49.5217Z" fill="#A79351" stroke="#A79351"/>
<path opacity="0.788235" d="M109.129 51.739L108.298 53.2173" stroke="#A79351"/>
<path opacity="0.788235" d="M129.875 52.4783L131.95 53.587L130.705 53.9565L129.875 52.4783Z" fill="#A79351" stroke="#A79351"/>
<path opacity="0.788235" d="M232.779 53.2173L233.195 111.978H232.364L232.779 53.2173Z" fill="#A79351" stroke="#A79351"/>
<path opacity="0.788235" d="M92.5315 53.9565L91.7007 55.4348" stroke="#A79351"/>
<path opacity="0.788235" d="M134.024 53.9565L142.738 54.3261L134.024 54.6957V53.9565Z" fill="#A79351" stroke="#A79351"/>
<path opacity="0.788235" d="M106.639 54.6956L104.979 56.9129" stroke="#A79351"/>
<path opacity="0.788235" d="M210.373 54.6956L209.543 56.1738L208.298 55.8043L210.373 54.6956Z" fill="#A79351" stroke="#A79351"/>
<path opacity="0.788235" d="M90.8719 56.1738L90.041 57.6521" stroke="#A79351"/>
<path opacity="0.788235" d="M163.07 56.9131L204.148 57.2827L163.07 57.6522V56.9131Z" fill="#A79351" stroke="#A79351"/>
<path opacity="0.788235" d="M104.15 57.6521L103.319 59.1304" stroke="#A79351"/>
<path opacity="0.788235" d="M153.111 57.6521L156.846 58.0217L153.111 58.3912V57.6521Z" fill="#A79351" stroke="#A79351"/>
<path opacity="0.788235" d="M357.26 58.3914L357.676 68.3696H356.845L357.26 58.3914Z" fill="#A79351" stroke="#A79351"/>
<path opacity="0.788235" d="M102.49 59.8696L101.659 61.3479" stroke="#A79351"/>
<path opacity="0.788235" d="M139.003 61.3479L140.248 61.7175L137.344 63.5653L139.003 61.3479Z" fill="#A79351" stroke="#A79351"/>
<path opacity="0.788235" d="M141.493 62.8262L143.568 63.1957L141.493 63.5653V62.8262Z" fill="#A79351" stroke="#A79351"/>
<path opacity="0.788235" d="M148.132 62.8262L151.037 63.1957L148.132 63.5653V62.8262Z" fill="#A79351" stroke="#A79351"/>
<path opacity="0.788235" d="M156.431 62.8262L159.335 63.1957L156.431 63.5653V62.8262Z" fill="#A79351" stroke="#A79351"/>
<path opacity="0.788235" d="M100.001 63.5652L99.1697 65.0434" stroke="#A79351"/>
<path opacity="0.788235" d="M157.261 64.3044L158.092 65.7827" stroke="#A79351"/>
<path opacity="0.788235" d="M134.439 65.0435L136.099 65.413L134.024 68L133.609 66.8913L134.439 65.0435Z" fill="#A79351" stroke="#A79351"/>
<path opacity="0.788235" d="M173.858 65.0435L175.933 65.413L173.858 65.7826V65.0435Z" fill="#A79351" stroke="#A79351"/>
<path opacity="0.788235" d="M98.3406 65.7827L97.5098 67.261" stroke="#A79351"/>
<path opacity="0.788235" d="M179.667 65.7827L186.721 66.1523L179.667 66.5218V65.7827Z" fill="#A79351" stroke="#A79351"/>
<path opacity="0.788235" d="M197.094 65.7827L201.659 66.1523L197.094 66.5218V65.7827Z" fill="#A79351" stroke="#A79351"/>
<path opacity="0.788235" d="M353.94 65.7827L354.355 67.6305L352.695 68.3697L353.94 65.7827Z" fill="#A79351" stroke="#A79351"/>
<path opacity="0.788235" d="M158.921 66.5217L159.336 70.5869H158.505L158.921 66.5217Z" fill="#A79351" stroke="#A79351"/>
<path opacity="0.788235" d="M272.613 67.261L274.687 67.6306L272.613 68.0001V67.261Z" fill="#A79351" stroke="#A79351"/>
<path opacity="0.788235" d="M319.916 67.261L321.99 67.6306L319.916 68.0001V67.261Z" fill="#A79351" stroke="#A79351"/>
<path opacity="0.788235" d="M326.554 67.261L328.629 67.6306L326.554 68.0001V67.261Z" fill="#A79351" stroke="#A79351"/>
<path opacity="0.788235" d="M520.744 67.261L522.819 67.6306L520.744 68.0001V67.261Z" fill="#A79351" stroke="#A79351"/>
<path opacity="0.788235" d="M527.383 67.261L529.458 67.6306L527.383 68.0001V67.261Z" fill="#A79351" stroke="#A79351"/>
<path opacity="0.788235" d="M648.544 67.261L650.619 67.6306L648.544 68.0001V67.261Z" fill="#A79351" stroke="#A79351"/>
<path opacity="0.788235" d="M699.997 67.261L702.071 67.6306L699.997 68.0001V67.261Z" fill="#A79351" stroke="#A79351"/>
<path opacity="0.788235" d="M748.129 67.261L750.204 67.6306L748.129 68.0001V67.261Z" fill="#A79351" stroke="#A79351"/>
<path opacity="0.788235" d="M121.576 68L129.46 68.3696L121.576 68.7391V68Z" fill="#A79351" stroke="#A79351"/>
<path opacity="0.788235" d="M397.923 68L399.998 68.3696L397.923 68.7391V68Z" fill="#A79351" stroke="#A79351"/>
<path opacity="0.788235" d="M403.732 68L405.807 68.3696L403.732 68.7391V68Z" fill="#A79351" stroke="#A79351"/>
<path opacity="0.788235" d="M468.462 68L470.537 68.3696L468.462 68.7391V68Z" fill="#A79351" stroke="#A79351"/>
<path opacity="0.788235" d="M474.271 68L476.346 68.3696L474.271 68.7391V68Z" fill="#A79351" stroke="#A79351"/>
<path opacity="0.788235" d="M255.186 68.739L255.601 111.978H254.771L255.186 68.739Z" fill="#A79351" stroke="#A79351"/>
<path opacity="0.788235" d="M535.682 68.739L536.513 70.2173" stroke="#A79351"/>
<path opacity="0.788235" d="M149.793 69.4783L148.962 70.9565" stroke="#A79351"/>
<path opacity="0.788235" d="M347.301 69.4783L346.886 70.587L347.301 71.6957H353.11V72.4348H346.471L346.056 70.587L347.301 69.4783Z" fill="#A79351" stroke="#A79351"/>
<path opacity="0.788235" d="M656.843 69.4783L660.163 73.1739" stroke="#A79351"/>
<path opacity="0.788235" d="M687.549 69.4783L686.719 70.9565" stroke="#A79351"/>
<path opacity="0.788235" d="M758.917 69.4783L759.748 70.9565" stroke="#A79351"/>
<path opacity="0.788235" d="M263.484 70.2173L260.995 73.1738" stroke="#A79351"/>
<path opacity="0.788235" d="M511.616 70.2173L506.636 75.3912" stroke="#A79351"/>
<path opacity="0.788235" d="M576.346 70.2173L572.196 74.6521" stroke="#A79351"/>
<path opacity="0.788235" d="M633.607 70.2173L629.457 74.6521L628.213 72.8042H629.043L629.457 73.9129L633.607 70.2173Z" fill="#A79351" stroke="#A79351"/>
<path opacity="0.788235" d="M696.677 70.2173L700.411 70.5869L696.677 70.9564V70.2173Z" fill="#A79351" stroke="#A79351"/>
<path opacity="0.788235" d="M709.125 70.2173L711.615 73.1738" stroke="#A79351"/>
<path opacity="0.788235" d="M258.506 70.9565L258.921 72.8044H258.09L258.506 70.9565Z" fill="#A79351" stroke="#A79351"/>
<path opacity="0.788235" d="M309.958 70.9565L309.127 72.4348" stroke="#A79351"/>
<path opacity="0.788235" d="M398.753 70.9565L404.147 71.3261L398.753 71.6957V70.9565Z" fill="#A79351" stroke="#A79351"/>
<path opacity="0.788235" d="M412.861 70.9565L414.521 73.1739" stroke="#A79351"/>
<path opacity="0.788235" d="M469.292 70.9565L474.686 71.3261L469.292 71.6957V70.9565Z" fill="#A79351" stroke="#A79351"/>
<path opacity="0.788235" d="M483.4 70.9565L485.06 73.1739" stroke="#A79351"/>
<path opacity="0.788235" d="M602.072 70.9565L604.561 73.9131" stroke="#A79351"/>
<path opacity="0.788235" d="M148.133 71.6956L147.302 73.1738" stroke="#A79351"/>
<path opacity="0.788235" d="M358.09 71.6956L371.782 72.0651L357.675 72.4347L357.26 101.261L356.845 72.8043L358.09 71.6956Z" fill="#A79351" stroke="#A79351"/>
<path opacity="0.788235" d="M285.061 72.4348L286.721 74.6522" stroke="#A79351"/>
<path opacity="0.788235" d="M597.922 72.4348L598.753 73.9131" stroke="#A79351"/>
<path opacity="0.788235" d="M635.268 72.4348L634.437 73.9131" stroke="#A79351"/>
<path opacity="0.788235" d="M264.314 73.1738L261.824 76.1303" stroke="#A79351"/>
<path opacity="0.788235" d="M387.135 73.1738L387.965 74.6521C386.416 74.997 386.139 74.5043 387.135 73.1738Z" fill="#A79351" stroke="#A79351"/>
<path opacity="0.788235" d="M457.674 73.1738L458.504 74.6521C456.955 74.997 456.678 74.5043 457.674 73.1738Z" fill="#A79351" stroke="#A79351"/>
<path opacity="0.788235" d="M513.276 73.1738L509.956 76.8695" stroke="#A79351"/>
<path opacity="0.788235" d="M578.005 73.1738L575.516 76.1303" stroke="#A79351"/>
<path opacity="0.788235" d="M707.465 73.1738L708.296 74.6521" stroke="#A79351"/>
<path opacity="0.788235" d="M682.57 73.9131L681.739 75.3913" stroke="#A79351"/>
<path opacity="0.788235" d="M411.201 74.6521L412.032 76.1304" stroke="#A79351"/>
<path opacity="0.788235" d="M481.74 74.6521L482.571 76.1304" stroke="#A79351"/>
<path opacity="0.788235" d="M605.391 74.6521L606.222 76.1304" stroke="#A79351"/>
<path opacity="0.788235" d="M144.814 75.3914L143.983 76.8696" stroke="#A79351"/>
<path opacity="0.788235" d="M156.432 75.3914L155.601 76.8696" stroke="#A79351"/>
<path opacity="0.788235" d="M631.948 75.3914L631.117 76.8696" stroke="#A79351"/>
<path opacity="0.788235" d="M709.125 75.3914L709.956 76.8696" stroke="#A79351"/>
<path opacity="0.788235" d="M310.787 76.1304L311.203 79.4565H310.372L310.787 76.1304Z" fill="#A79351" stroke="#A79351"/>
<path opacity="0.788235" d="M505.808 76.1304L504.977 77.6086" stroke="#A79351"/>
<path opacity="0.788235" d="M602.072 76.1304L602.903 77.6086" stroke="#A79351"/>
<path opacity="0.788235" d="M680.91 76.1304L680.08 77.6086" stroke="#A79351"/>
<path opacity="0.788235" d="M685.06 76.1304L684.229 77.6086" stroke="#A79351"/>
<path opacity="0.788235" d="M731.532 76.1304L731.948 78.7173H731.117L731.532 76.1304Z" fill="#A79351" stroke="#A79351"/>
<path opacity="0.788235" d="M130.706 76.8696L129.875 78.3479" stroke="#A79351"/>
<path opacity="0.788235" d="M574.687 76.8696L573.856 78.3479" stroke="#A79351"/>
<path opacity="0.788235" d="M117.427 77.6086L117.012 78.7173L114.937 81.3043L116.182 79.4565L117.427 77.6086Z" fill="#A79351" stroke="#A79351"/>
<path opacity="0.788235" d="M143.153 77.6086L139.833 81.3043" stroke="#A79351"/>
<path opacity="0.788235" d="M154.771 77.6086L154.356 78.7173L153.111 80.5652L153.526 79.4565L154.771 77.6086Z" fill="#A79351" stroke="#A79351"/>
<path opacity="0.788235" d="M417.011 78.3479L417.426 80.1957H416.595L417.011 78.3479Z" fill="#A79351" stroke="#A79351"/>
<path opacity="0.788235" d="M487.55 78.3479L487.965 80.1957H487.135L487.55 78.3479Z" fill="#A79351" stroke="#A79351"/>
<path opacity="0.788235" d="M662.653 78.3479L663.068 81.674H662.237L662.653 78.3479Z" fill="#A79351" stroke="#A79351"/>
<path opacity="0.788235" d="M129.046 79.0869L128.215 80.5652" stroke="#A79351"/>
<path opacity="0.788235" d="M289.211 79.0869L289.626 111.978H288.795L289.211 79.0869Z" fill="#A79351" stroke="#A79351"/>
<path opacity="0.788235" d="M79.2533 79.8262L79.6688 89.0653H78.8379L79.2533 79.8262Z" fill="#A79351" stroke="#A79351"/>
<path opacity="0.788235" d="M413.691 79.8262L414.107 83.1523H413.276L413.691 79.8262Z" fill="#A79351" stroke="#A79351"/>
<path opacity="0.788235" d="M484.23 79.8262L484.646 83.1523H483.815L484.23 79.8262Z" fill="#A79351" stroke="#A79351"/>
<path opacity="0.788235" d="M715.765 79.8262L716.18 81.674H715.349L715.765 79.8262Z" fill="#A79351" stroke="#A79351"/>
<path opacity="0.788235" d="M259.335 80.5652L259.751 82.413H258.92L259.335 80.5652Z" fill="#A79351" stroke="#A79351"/>
<path opacity="0.788235" d="M127.385 81.3044L125.726 83.5218" stroke="#A79351"/>
<path opacity="0.788235" d="M152.283 81.3044L151.452 82.7827" stroke="#A79351"/>
<path opacity="0.788235" d="M659.333 81.3044L659.749 111.978H658.918L659.333 81.3044Z" fill="#A79351" stroke="#A79351"/>
<path opacity="0.788235" d="M114.107 82.0435L112.448 84.2608" stroke="#A79351"/>
<path opacity="0.788235" d="M312.447 82.0435L314.106 84.2608" stroke="#A79351"/>
<path opacity="0.788235" d="M733.191 82.0435L734.022 83.5217" stroke="#A79351"/>
<path opacity="0.788235" d="M308.297 82.7827L312.447 87.2175" stroke="#A79351"/>
<path opacity="0.788235" d="M681.74 82.7827L682.155 84.6305H681.324L681.74 82.7827Z" fill="#A79351" stroke="#A79351"/>
<path opacity="0.788235" d="M712.445 82.7827L712.861 86.8479H712.03L712.445 82.7827Z" fill="#A79351" stroke="#A79351"/>
<path opacity="0.788235" d="M137.344 83.5217L134.854 86.4783" stroke="#A79351"/>
<path opacity="0.788235" d="M502.488 83.5217L502.903 85.3696H502.072L502.488 83.5217Z" fill="#A79351" stroke="#A79351"/>
<path opacity="0.788235" d="M609.541 83.5217L609.956 85.3696H609.125L609.541 83.5217Z" fill="#A79351" stroke="#A79351"/>
<path opacity="0.788235" d="M628.628 83.5217L629.044 111.978H628.213L628.628 83.5217Z" fill="#A79351" stroke="#A79351"/>
<path opacity="0.788235" d="M677.59 83.5217L678.006 85.3696H677.175L677.59 83.5217Z" fill="#A79351" stroke="#A79351"/>
<path opacity="0.788235" d="M729.872 83.5217L732.361 86.4783" stroke="#A79351"/>
<path opacity="0.788235" d="M149.792 84.261L148.132 86.4784" stroke="#A79351"/>
<path opacity="0.788235" d="M571.367 84.261L571.783 87.5871H570.952L571.367 84.261Z" fill="#A79351" stroke="#A79351"/>
<path opacity="0.788235" d="M111.618 85L108.298 88.6957" stroke="#A79351"/>
<path opacity="0.788235" d="M124.066 85L120.746 88.6957" stroke="#A79351"/>
<path opacity="0.788235" d="M716.594 85L717.009 89.8043L715.764 90.913H681.325L680.91 93.8696L680.495 91.2826L681.739 90.1739H716.179L716.594 85Z" fill="#A79351" stroke="#A79351"/>
<path opacity="0.788235" d="M258.506 86.4783L258.921 111.978H258.09L258.506 86.4783Z" fill="#A79351" stroke="#A79351"/>
<path opacity="0.788235" d="M567.218 86.4783L567.633 93.5H566.802L567.218 86.4783Z" fill="#A79351" stroke="#A79351"/>
<path opacity="0.788235" d="M147.302 87.2173L143.983 90.9129" stroke="#A79351"/>
<path opacity="0.788235" d="M405.392 87.2173L410.786 87.5869L405.392 87.9564V87.2173Z" fill="#A79351" stroke="#A79351"/>
<path opacity="0.788235" d="M475.931 87.2173L481.325 87.5869L475.931 87.9564V87.2173Z" fill="#A79351" stroke="#A79351"/>
<path opacity="0.788235" d="M505.807 87.2173L506.222 93.4999H505.392L505.807 87.2173Z" fill="#A79351" stroke="#A79351"/>
<path opacity="0.788235" d="M606.222 87.2173L606.637 92.7608H605.806L606.222 87.2173Z" fill="#A79351" stroke="#A79351"/>
<path opacity="0.788235" d="M132.364 88.6956L129.045 92.3912" stroke="#A79351"/>
<path opacity="0.788235" d="M404.562 90.1738L409.127 90.5434L404.562 90.913V90.1738Z" fill="#A79351" stroke="#A79351"/>
<path opacity="0.788235" d="M413.691 90.1738L414.107 97.1956H413.276L413.691 90.1738Z" fill="#A79351" stroke="#A79351"/>
<path opacity="0.788235" d="M475.101 90.1738L479.666 90.5434L475.101 90.913V90.1738Z" fill="#A79351" stroke="#A79351"/>
<path opacity="0.788235" d="M484.23 90.1738L484.646 97.1956H483.815L484.23 90.1738Z" fill="#A79351" stroke="#A79351"/>
<path opacity="0.788235" d="M117.427 91.6521L108.298 100.522" stroke="#A79351"/>
<path opacity="0.788235" d="M384.646 92.3914L383.815 93.8696" stroke="#A79351"/>
<path opacity="0.788235" d="M455.185 92.3914L454.354 93.8696" stroke="#A79351"/>
<path opacity="0.788235" d="M571.367 92.3914L571.783 94.9783H570.952L571.367 92.3914Z" fill="#A79351" stroke="#A79351"/>
<path opacity="0.788235" d="M756.428 92.3914L758.917 95.3479" stroke="#A79351"/>
<path opacity="0.788235" d="M80.9124 93.1304L85.0617 97.5652" stroke="#A79351"/>
<path opacity="0.788235" d="M102.489 93.1304V94.6086L104.564 94.9782L103.319 96.0869L101.244 95.7173L102.489 93.1304Z" fill="#A79351" stroke="#A79351"/>
<path opacity="0.788235" d="M141.493 93.1304L138.588 96.4565L138.173 97.5652L137.759 96.4565L141.493 93.1304Z" fill="#A79351" stroke="#A79351"/>
<path opacity="0.788235" d="M336.513 93.1304L337.344 94.6086" stroke="#A79351"/>
<path opacity="0.788235" d="M163.9 93.8696L163.07 95.3479L161.825 94.9783L163.9 93.8696Z" fill="#A79351" stroke="#A79351"/>
<path opacity="0.788235" d="M89.2112 94.6086L92.1157 96.4565L90.8709 96.826L89.2112 94.6086Z" fill="#A79351" stroke="#A79351"/>
<path opacity="0.788235" d="M332.364 94.6086L334.853 97.5652" stroke="#A79351"/>
<path opacity="0.788235" d="M382.986 94.6086L382.571 95.7173L382.156 96.826L381.741 95.7173L382.986 94.6086Z" fill="#A79351" stroke="#A79351"/>
<path opacity="0.788235" d="M453.525 94.6086L453.11 95.7173L452.695 96.826L452.28 95.7173L453.525 94.6086Z" fill="#A79351" stroke="#A79351"/>
<path opacity="0.788235" d="M609.541 94.6086L609.956 96.4565H609.125L609.541 94.6086Z" fill="#A79351" stroke="#A79351"/>
<path opacity="0.788235" d="M120.746 95.3479L126.141 95.7175L120.746 96.087V95.3479Z" fill="#A79351" stroke="#A79351"/>
<path opacity="0.788235" d="M502.488 95.3479L502.903 97.1957H502.072L502.488 95.3479Z" fill="#A79351" stroke="#A79351"/>
<path opacity="0.788235" d="M677.59 95.3479L678.006 97.1957H677.175L677.59 95.3479Z" fill="#A79351" stroke="#A79351"/>
<path opacity="0.788235" d="M116.597 96.0869L118.672 96.4565L116.182 97.1956L117.842 97.9347L116.597 98.3043L114.522 97.1956L116.597 96.0869Z" fill="#A79351" stroke="#A79351"/>
<path opacity="0.788235" d="M162.241 96.0869L161.41 97.5652" stroke="#A79351"/>
<path opacity="0.788235" d="M568.048 96.0869L568.463 97.9347H567.632L568.048 96.0869Z" fill="#A79351" stroke="#A79351"/>
<path opacity="0.788235" d="M102.49 96.8262L101.659 98.3044" stroke="#A79351"/>
<path opacity="0.788235" d="M155.601 96.8262L157.676 97.1957L155.601 97.5653V96.8262Z" fill="#A79351" stroke="#A79351"/>
<path opacity="0.788235" d="M755.598 96.8262L756.429 98.3044" stroke="#A79351"/>
<path opacity="0.788235" d="M113.277 97.5652L111.618 99.7826" stroke="#A79351"/>
<path opacity="0.788235" d="M141.493 97.5652L146.057 97.9348L141.493 98.3043V97.5652Z" fill="#A79351" stroke="#A79351"/>
<path opacity="0.788235" d="M148.962 97.5652L152.696 97.9348L148.962 98.3043V97.5652Z" fill="#A79351" stroke="#A79351"/>
<path opacity="0.788235" d="M381.326 97.5652L381.742 99.413H380.911L381.326 97.5652Z" fill="#A79351" stroke="#A79351"/>
<path opacity="0.788235" d="M451.865 97.5652L452.281 99.413H451.45L451.865 97.5652Z" fill="#A79351" stroke="#A79351"/>
<path opacity="0.788235" d="M760.578 97.5652L760.993 99.413H760.162L760.578 97.5652Z" fill="#A79351" stroke="#A79351"/>
<path opacity="0.788235" d="M120.746 98.3044L121.577 99.7827" stroke="#A79351"/>
<path opacity="0.788235" d="M160.58 98.3044L158.091 101.261" stroke="#A79351"/>
<path opacity="0.788235" d="M339.833 98.3044L340.248 103.109H339.417L339.833 98.3044Z" fill="#A79351" stroke="#A79351"/>
<path opacity="0.788235" d="M757.258 99.7827L757.674 102.37H756.843L757.258 99.7827Z" fill="#A79351" stroke="#A79351"/>
<path opacity="0.788235" d="M119.916 101.261L118.257 103.478" stroke="#A79351"/>
<path opacity="0.788235" d="M508.296 101.261L509.127 102.739" stroke="#A79351"/>
<path opacity="0.788235" d="M569.707 101.261L570.951 103.109L569.292 102.37L569.707 101.261Z" fill="#A79351" stroke="#A79351"/>
<path opacity="0.788235" d="M155.602 102L154.771 103.478" stroke="#A79351"/>
<path opacity="0.788235" d="M353.941 102L354.356 104.587H353.525L353.941 102Z" fill="#A79351" stroke="#A79351"/>
<path opacity="0.788235" d="M381.326 102L381.742 103.848H380.911L381.326 102Z" fill="#A79351" stroke="#A79351"/>
<path opacity="0.788235" d="M412.032 102L411.201 103.478" stroke="#A79351"/>
<path opacity="0.788235" d="M451.865 102L452.281 103.848H451.45L451.865 102Z" fill="#A79351" stroke="#A79351"/>
<path opacity="0.788235" d="M482.571 102L481.74 103.478" stroke="#A79351"/>
<path opacity="0.788235" d="M760.578 102L760.993 103.848H760.162L760.578 102Z" fill="#A79351" stroke="#A79351"/>
<path opacity="0.788235" d="M130.705 102.739L126.555 107.174" stroke="#A79351"/>
<path opacity="0.788235" d="M602.903 102.739L602.072 104.217" stroke="#A79351"/>
<path opacity="0.788235" d="M684.229 102.739L685.06 104.217" stroke="#A79351"/>
<path opacity="0.788235" d="M98.3398 103.478L98.7547 104.587L97.5099 106.435L97.095 105.326L98.3398 103.478Z" fill="#A79351" stroke="#A79351"/>
<path opacity="0.788235" d="M104.979 103.478L102.489 106.435" stroke="#A79351"/>
<path opacity="0.788235" d="M335.683 103.478L336.098 104.587L331.948 107.543L335.683 103.478Z" fill="#A79351" stroke="#A79351"/>
<path opacity="0.788235" d="M509.956 103.478L513.276 107.174" stroke="#A79351"/>
<path opacity="0.788235" d="M117.428 104.217L116.597 105.696" stroke="#A79351"/>
<path opacity="0.788235" d="M410.371 104.217L407.882 107.174" stroke="#A79351"/>
<path opacity="0.788235" d="M480.911 104.217L478.421 107.174" stroke="#A79351"/>
<path opacity="0.788235" d="M505.807 104.217L506.638 105.696" stroke="#A79351"/>
<path opacity="0.788235" d="M575.516 104.217L578.005 107.174" stroke="#A79351"/>
<path opacity="0.788235" d="M606.222 104.217L605.391 105.696" stroke="#A79351"/>
<path opacity="0.788235" d="M680.909 104.217L681.74 105.696" stroke="#A79351"/>
<path opacity="0.788235" d="M756.429 104.217L755.598 105.696" stroke="#A79351"/>
<path opacity="0.788235" d="M139.833 104.957L141.908 105.326L139.833 105.696V104.957Z" fill="#A79351" stroke="#A79351"/>
<path opacity="0.788235" d="M148.132 104.957L150.207 105.326L148.132 105.696V104.957Z" fill="#A79351" stroke="#A79351"/>
<path opacity="0.788235" d="M412.861 104.956C414.133 104.612 414.548 104.981 414.106 106.065L412.861 105.696L408.297 109.022L412.861 104.956Z" fill="#A79351" stroke="#A79351"/>
<path opacity="0.788235" d="M483.4 104.956C484.673 104.612 485.088 104.981 484.645 106.065L483.4 105.696L478.836 109.022L483.4 104.956Z" fill="#A79351" stroke="#A79351"/>
<path opacity="0.788235" d="M759.747 104.957L760.162 106.065L758.502 106.804L759.747 104.957Z" fill="#A79351" stroke="#A79351"/>
<path opacity="0.788235" d="M572.196 105.696L575.516 109.391" stroke="#A79351"/>
<path opacity="0.788235" d="M115.767 106.435L114.107 108.652" stroke="#A79351"/>
<path opacity="0.788235" d="M305.393 106.435L307.052 106.804L306.222 109.761L306.637 110.87C305.144 110.18 304.729 108.701 305.393 106.435Z" fill="#A79351" stroke="#A79351"/>
<path opacity="0.788235" d="M338.174 106.435L337.343 107.913" stroke="#A79351"/>
<path opacity="0.788235" d="M358.919 106.435L360.579 108.652" stroke="#A79351"/>
<path opacity="0.788235" d="M387.135 106.435L387.966 107.913" stroke="#A79351"/>
<path opacity="0.788235" d="M457.674 106.435L458.505 107.913" stroke="#A79351"/>
<path opacity="0.788235" d="M507.466 106.435L509.126 108.652" stroke="#A79351"/>
<path opacity="0.788235" d="M598.753 106.435L597.922 107.913" stroke="#A79351"/>
<path opacity="0.788235" d="M604.561 106.435L602.902 108.652" stroke="#A79351"/>
<path opacity="0.788235" d="M682.569 106.435L684.229 108.652" stroke="#A79351"/>
<path opacity="0.788235" d="M688.378 106.435L689.209 107.913" stroke="#A79351"/>
<path opacity="0.788235" d="M726.137 106.435L727.797 106.804L726.967 109.761L727.382 110.87C725.889 110.18 725.474 108.701 726.137 106.435Z" fill="#A79351" stroke="#A79351"/>
<path opacity="0.788235" d="M753.939 106.435L753.108 107.913" stroke="#A79351"/>
<path opacity="0.788235" d="M96.6806 107.174L97.096 109.022H96.2651L96.6806 107.174Z" fill="#A79351" stroke="#A79351"/>
<path opacity="0.788235" d="M101.66 107.174L100.829 108.652" stroke="#A79351"/>
<path opacity="0.788235" d="M382.986 107.174L383.816 108.652" stroke="#A79351"/>
<path opacity="0.788235" d="M453.525 107.174L454.356 108.652" stroke="#A79351"/>
<path opacity="0.788235" d="M414.521 108.652L414.937 111.239H414.106L414.521 108.652Z" fill="#A79351" stroke="#A79351"/>
<path opacity="0.788235" d="M485.06 108.652L485.476 111.239H484.645L485.06 108.652Z" fill="#A79351" stroke="#A79351"/>
<path opacity="0.788235" d="M356.43 109.391L357.261 110.87" stroke="#A79351"/>
<path opacity="0.788235" d="M364.729 109.391L369.293 109.761L364.729 110.13V109.391Z" fill="#A79351" stroke="#A79351"/>
<path opacity="0.788235" d="M373.028 109.391L373.443 111.978H372.612L373.028 109.391Z" fill="#A79351" stroke="#A79351"/>
<path opacity="0.788235" d="M600.413 109.391L599.582 110.87" stroke="#A79351"/>
<path opacity="0.788235" d="M755.599 109.391L754.768 110.87" stroke="#A79351"/>
<path opacity="0.788235" d="M122.406 110.87L118.257 115.304" stroke="#A79351"/>
<path opacity="0.788235" d="M315.766 112.348L317.841 112.717L315.766 113.087V112.348Z" fill="#A79351" stroke="#A79351"/>
<path opacity="0.788235" d="M368.048 112.348L370.123 112.717L368.048 113.087V112.348Z" fill="#A79351" stroke="#A79351"/>
<path opacity="0.788235" d="M397.923 112.348L399.998 112.717L397.923 113.087V112.348Z" fill="#A79351" stroke="#A79351"/>
<path opacity="0.788235" d="M468.462 112.348L470.537 112.717L468.462 113.087V112.348Z" fill="#A79351" stroke="#A79351"/>
<path opacity="0.788235" d="M590.454 112.348L592.528 112.717L590.454 113.087V112.348Z" fill="#A79351" stroke="#A79351"/>
<path opacity="0.788235" d="M702.486 112.348L704.561 112.717L702.486 113.087V112.348Z" fill="#A79351" stroke="#A79351"/>
<path opacity="0.788235" d="M736.511 112.348L739.415 112.717L736.511 113.087V112.348Z" fill="#A79351" stroke="#A79351"/>
<path opacity="0.788235" d="M744.81 112.348L746.884 112.717L744.81 113.087V112.348Z" fill="#A79351" stroke="#A79351"/>
<path opacity="0.788235" d="M110.789 113.087L109.958 114.565" stroke="#A79351"/>
<path opacity="0.788235" d="M96.6799 113.826L97.9247 115.674H97.0949L96.6799 113.826Z" fill="#A79351" stroke="#A79351"/>
<path opacity="0.788235" d="M108.299 116.783L107.468 118.261" stroke="#A79351"/>
<path opacity="0.788235" d="M115.767 117.522L114.107 119.739" stroke="#A79351"/>
<path opacity="0.788235" d="M112.448 121.217L110.788 123.435" stroke="#A79351"/>
<path opacity="0.788235" d="M104.979 121.957L105.394 123.065L104.149 124.913L103.734 123.804L104.979 121.957Z" fill="#A79351" stroke="#A79351"/>
<path opacity="0.788235" d="M109.958 124.174L109.543 125.283L108.298 127.13L108.713 126.022L109.958 124.174Z" fill="#A79351" stroke="#A79351"/>
<path opacity="0.788235" d="M103.319 125.652L103.735 127.5H102.904L103.319 125.652Z" fill="#A79351" stroke="#A79351"/>
<path opacity="0.788235" d="M103.319 133.043L104.564 135.63H103.734L103.319 133.043Z" fill="#A79351" stroke="#A79351"/>
<path opacity="0.290196" d="M143.153 25.8696L150.207 26.2392L143.153 26.6088V25.8696Z" fill="#A79351" stroke="#A79351"/>
<path opacity="0.290196" d="M137.344 26.6086L140.248 26.9782L137.344 27.3478V26.6086Z" fill="#A79351" stroke="#A79351"/>
<path opacity="0.290196" d="M153.111 26.6086L155.186 26.9782L153.111 27.3478V26.6086Z" fill="#A79351" stroke="#A79351"/>
<path opacity="0.290196" d="M133.194 27.3479L135.269 27.7175L133.194 28.087V27.3479Z" fill="#A79351" stroke="#A79351"/>
<path opacity="0.290196" d="M156.431 27.3479L158.505 28.4566L157.261 28.087L156.431 27.3479Z" fill="#A79351" stroke="#A79351"/>
<path opacity="0.290196" d="M142.323 28.8262L150.207 29.1957L142.323 29.5653V28.8262Z" fill="#A79351" stroke="#A79351"/>
<path opacity="0.290196" d="M159.75 28.8262L161.41 31.0436" stroke="#A79351"/>
<path opacity="0.290196" d="M122.406 31.0435L123.651 31.413L116.597 34.7391L117.427 33.2608L122.406 31.0435Z" fill="#A79351" stroke="#A79351"/>
<path opacity="0.290196" d="M132.366 32.5217L131.535 34" stroke="#A79351"/>
<path opacity="0.290196" d="M163.07 33.261L163.486 38.0653H162.655L163.07 33.261Z" fill="#A79351" stroke="#A79351"/>
<path opacity="0.290196" d="M129.876 34L129.045 35.4783" stroke="#A79351"/>
<path opacity="0.290196" d="M127.386 35.4783L126.555 36.9565" stroke="#A79351"/>
<path opacity="0.290196" d="M112.449 36.2173L111.618 37.6955" stroke="#A79351"/>
<path opacity="0.290196" d="M109.959 37.6956L109.128 39.1738" stroke="#A79351"/>
<path opacity="0.290196" d="M123.236 38.4348L114.937 46.5652" stroke="#A79351"/>
<path opacity="0.290196" d="M149.792 38.4348L147.302 41.3913" stroke="#A79351"/>
<path opacity="0.290196" d="M106.639 39.9131L104.149 42.8696" stroke="#A79351"/>
<path opacity="0.290196" d="M143.153 44.3479L139.833 48.0436" stroke="#A79351"/>
<path opacity="0.290196" d="M159.75 44.3479L153.111 51.0001" stroke="#A79351"/>
<path opacity="0.290196" d="M97.5099 48.0435L95.0203 51" stroke="#A79351"/>
<path opacity="0.290196" d="M111.618 49.5217L109.958 51.7391" stroke="#A79351"/>
<path opacity="0.290196" d="M135.684 49.5217L134.854 51L133.194 51.7391L134.024 50.2609L135.684 49.5217Z" fill="#A79351" stroke="#A79351"/>
<path opacity="0.290196" d="M438.588 49.5217L439.003 111.978H438.172L438.588 49.5217Z" fill="#A79351" stroke="#A79351"/>
<path opacity="0.290196" d="M109.128 52.4783L107.468 54.6957" stroke="#A79351"/>
<path opacity="0.290196" d="M129.045 52.4783L129.876 53.9565" stroke="#A79351"/>
<path opacity="0.290196" d="M549.791 52.4783L548.96 53.9565" stroke="#A79351"/>
<path opacity="0.290196" d="M552.279 52.4783L553.11 53.9565" stroke="#A79351"/>
<path opacity="0.290196" d="M92.5315 53.2173L91.7007 54.6955" stroke="#A79351"/>
<path opacity="0.290196" d="M236.929 53.2173L237.344 111.978H236.513L236.929 53.2173Z" fill="#A79351" stroke="#A79351"/>
<path opacity="0.290196" d="M211.202 53.9565C212.862 53.7101 213.277 55.3116 212.447 58.7609H211.617L211.202 53.9565Z" fill="#A79351" stroke="#A79351"/>
<path opacity="0.290196" d="M136.514 54.6956L139.418 55.0651L136.514 55.4347V54.6956Z" fill="#A79351" stroke="#A79351"/>
<path opacity="0.290196" d="M548.131 54.6956L548.546 58.0216H547.715L548.131 54.6956Z" fill="#A79351" stroke="#A79351"/>
<path opacity="0.290196" d="M553.94 54.6956L554.355 58.0216H553.524L553.94 54.6956Z" fill="#A79351" stroke="#A79351"/>
<path opacity="0.290196" d="M90.8719 55.4348L90.041 56.9131" stroke="#A79351"/>
<path opacity="0.290196" d="M105.81 56.1738L104.979 57.6521" stroke="#A79351"/>
<path opacity="0.290196" d="M202.074 56.1738L205.808 56.5434L202.074 56.913V56.1738Z" fill="#A79351" stroke="#A79351"/>
<path opacity="0.290196" d="M156.431 56.9131L162.655 57.2827L156.431 57.6522V56.9131Z" fill="#A79351" stroke="#A79351"/>
<path opacity="0.290196" d="M150.622 57.6521L152.696 58.0217L150.622 58.3912V57.6521Z" fill="#A79351" stroke="#A79351"/>
<path opacity="0.290196" d="M104.15 58.3914L103.319 59.8696" stroke="#A79351"/>
<path opacity="0.290196" d="M358.09 58.3914L358.505 66.8914H357.675L358.09 58.3914Z" fill="#A79351" stroke="#A79351"/>
<path opacity="0.290196" d="M88.3824 59.1304L87.5515 60.6086" stroke="#A79351"/>
<path opacity="0.290196" d="M548.96 59.1304L549.791 60.6086" stroke="#A79351"/>
<path opacity="0.290196" d="M553.11 59.1304L552.279 60.6086" stroke="#A79351"/>
<path opacity="0.290196" d="M141.493 59.8696L142.738 60.2392L139.833 61.3479V60.6088L141.493 59.8696Z" fill="#A79351" stroke="#A79351"/>
<path opacity="0.290196" d="M102.49 60.6086L101.659 62.0869" stroke="#A79351"/>
<path opacity="0.290196" d="M354.77 60.6086L355.186 62.4565H354.355L354.77 60.6086Z" fill="#A79351" stroke="#A79351"/>
<path opacity="0.290196" d="M138.174 61.3479L134.439 65.4131L134.854 66.5218L136.929 65.4131C135.822 67.6305 134.716 67.8769 133.609 66.1522L138.174 61.3479Z" fill="#A79351" stroke="#A79351"/>
<path opacity="0.290196" d="M210.372 61.3479L207.883 64.3044" stroke="#A79351"/>
<path opacity="0.290196" d="M143.983 62.8262L147.717 63.1957L143.983 63.5653V62.8262Z" fill="#A79351" stroke="#A79351"/>
<path opacity="0.290196" d="M151.452 63.5653C152.89 63.1711 153.305 63.7871 152.696 65.4132H151.867L151.452 63.5653Z" fill="#A79351" stroke="#A79351"/>
<path opacity="0.290196" d="M160.58 63.5652L164.314 63.9348L160.58 64.3043V63.5652Z" fill="#A79351" stroke="#A79351"/>
<path opacity="0.290196" d="M171.368 65.0435L173.443 65.413L171.368 65.7826V65.0435Z" fill="#A79351" stroke="#A79351"/>
<path opacity="0.290196" d="M176.348 65.7827L179.252 66.1523L176.348 66.5218V65.7827Z" fill="#A79351" stroke="#A79351"/>
<path opacity="0.290196" d="M98.3397 66.5217L97.9247 67.6304L96.6799 69.4783L97.0949 68.3696L98.3397 66.5217Z" fill="#A79351" stroke="#A79351"/>
<path opacity="0.290196" d="M151.452 66.5217L150.622 68" stroke="#A79351"/>
<path opacity="0.290196" d="M182.987 66.5217L199.169 66.8913L182.987 67.2609V66.5217Z" fill="#A79351" stroke="#A79351"/>
<path opacity="0.290196" d="M121.576 67.261L127.8 67.6306L121.161 68.0001L120.746 70.2175L120.331 68.3697L121.576 67.261Z" fill="#A79351" stroke="#A79351"/>
<path opacity="0.290196" d="M133.194 67.261L134.024 68.7392C132.475 69.0842 132.199 68.5914 133.194 67.261Z" fill="#A79351" stroke="#A79351"/>
<path opacity="0.290196" d="M329.044 67.261L331.119 67.6306L329.044 68.0001V67.261Z" fill="#A79351" stroke="#A79351"/>
<path opacity="0.290196" d="M353.11 67.261L352.28 68.7392L351.036 68.3697L353.11 67.261Z" fill="#A79351" stroke="#A79351"/>
<path opacity="0.290196" d="M739 67.261L741.075 67.6306L739 68.0001V67.261Z" fill="#A79351" stroke="#A79351"/>
<path opacity="0.290196" d="M395.434 68L397.508 68.3696L395.434 68.7391V68Z" fill="#A79351" stroke="#A79351"/>
<path opacity="0.290196" d="M465.973 68L468.048 68.3696L465.973 68.7391V68Z" fill="#A79351" stroke="#A79351"/>
<path opacity="0.290196" d="M131.535 68.739L132.366 70.2173" stroke="#A79351"/>
<path opacity="0.290196" d="M149.793 68.739L148.962 70.2173" stroke="#A79351"/>
<path opacity="0.290196" d="M258.506 68.739L258.921 70.5868H258.09L258.506 68.739Z" fill="#A79351" stroke="#A79351"/>
<path opacity="0.290196" d="M372.198 68.739L372.613 72.0651H371.782L372.198 68.739Z" fill="#A79351" stroke="#A79351"/>
<path opacity="0.290196" d="M548.96 68.739L549.376 111.978H548.545L548.96 68.739Z" fill="#A79351" stroke="#A79351"/>
<path opacity="0.290196" d="M553.11 68.739L553.525 111.978H552.694L553.11 68.739Z" fill="#A79351" stroke="#A79351"/>
<path opacity="0.290196" d="M624.479 68.739L624.894 111.978H624.063L624.479 68.739Z" fill="#A79351" stroke="#A79351"/>
<path opacity="0.290196" d="M287.551 69.4783L290.04 72.4348" stroke="#A79351"/>
<path opacity="0.290196" d="M311.618 69.4783L310.787 70.9565" stroke="#A79351"/>
<path opacity="0.290196" d="M339.003 69.4783L339.418 71.3261H338.587L339.003 69.4783Z" fill="#A79351" stroke="#A79351"/>
<path opacity="0.290196" d="M346.471 69.4783L346.056 70.587L345.641 71.6957L345.227 70.587L346.471 69.4783Z" fill="#A79351" stroke="#A79351"/>
<path opacity="0.290196" d="M411.201 69.4783L412.032 70.9565" stroke="#A79351"/>
<path opacity="0.290196" d="M481.74 69.4783L482.571 70.9565" stroke="#A79351"/>
<path opacity="0.290196" d="M600.412 69.4783L601.243 70.9565" stroke="#A79351"/>
<path opacity="0.290196" d="M628.628 69.4783L629.044 72.0652H628.213L628.628 69.4783Z" fill="#A79351" stroke="#A79351"/>
<path opacity="0.290196" d="M732.361 69.4783L729.042 73.1739" stroke="#A79351"/>
<path opacity="0.290196" d="M632.777 70.2173L629.458 73.9129" stroke="#A79351"/>
<path opacity="0.290196" d="M658.503 70.2173L659.334 71.6955" stroke="#A79351"/>
<path opacity="0.290196" d="M685.889 70.2173L681.739 74.6521" stroke="#A79351"/>
<path opacity="0.290196" d="M148.133 70.9565L147.302 72.4348" stroke="#A79351"/>
<path opacity="0.290196" d="M509.956 70.9565L506.636 74.6522" stroke="#A79351"/>
<path opacity="0.290196" d="M574.686 70.9565L572.196 73.9131" stroke="#A79351"/>
<path opacity="0.290196" d="M338.174 72.4348L337.343 73.9131" stroke="#A79351"/>
<path opacity="0.290196" d="M353.111 72.4348L353.526 102.37H352.695L353.111 72.4348Z" fill="#A79351" stroke="#A79351"/>
<path opacity="0.290196" d="M514.936 72.4348L514.105 73.9131" stroke="#A79351"/>
<path opacity="0.290196" d="M579.666 72.4348L578.835 73.9131" stroke="#A79351"/>
<path opacity="0.290196" d="M654.354 72.4348L656.843 75.3913" stroke="#A79351"/>
<path opacity="0.290196" d="M705.806 72.4348L708.295 75.3913" stroke="#A79351"/>
<path opacity="0.290196" d="M146.472 73.1738L144.812 75.3912" stroke="#A79351"/>
<path opacity="0.290196" d="M290.87 73.1738L292.115 75.0217H291.285L290.87 73.1738Z" fill="#A79351" stroke="#A79351"/>
<path opacity="0.290196" d="M313.277 73.1738L312.447 74.6521" stroke="#A79351"/>
<path opacity="0.290196" d="M409.542 73.1738L410.372 74.6521" stroke="#A79351"/>
<path opacity="0.290196" d="M480.081 73.1738L480.911 74.6521" stroke="#A79351"/>
<path opacity="0.290196" d="M688.378 73.1738L685.889 76.1303" stroke="#A79351"/>
<path opacity="0.290196" d="M712.445 73.1738L713.275 74.6521" stroke="#A79351"/>
<path opacity="0.290196" d="M734.022 73.1738L733.191 74.6521" stroke="#A79351"/>
<path opacity="0.290196" d="M285.891 73.9131L286.721 75.3913" stroke="#A79351"/>
<path opacity="0.290196" d="M599.582 73.9131L601.242 76.1305" stroke="#A79351"/>
<path opacity="0.290196" d="M605.391 73.9131L606.222 75.3913" stroke="#A79351"/>
<path opacity="0.290196" d="M633.608 73.9131L632.777 75.3913" stroke="#A79351"/>
<path opacity="0.290196" d="M571.367 74.6521L570.537 76.1304" stroke="#A79351"/>
<path opacity="0.290196" d="M262.655 75.3914L261.824 76.8696" stroke="#A79351"/>
<path opacity="0.290196" d="M306.638 75.3914L307.054 80.1957H306.223L306.638 75.3914Z" fill="#A79351" stroke="#A79351"/>
<path opacity="0.290196" d="M411.201 75.3914L412.446 77.2392H411.616L411.201 75.3914Z" fill="#A79351" stroke="#A79351"/>
<path opacity="0.290196" d="M481.74 75.3914L482.985 77.2392H482.155L481.74 75.3914Z" fill="#A79351" stroke="#A79351"/>
<path opacity="0.290196" d="M505.808 75.3914L504.977 76.8696" stroke="#A79351"/>
<path opacity="0.290196" d="M576.347 75.3914L575.516 76.8696" stroke="#A79351"/>
<path opacity="0.290196" d="M680.91 75.3914L680.08 76.8696" stroke="#A79351"/>
<path opacity="0.290196" d="M156.431 76.1304L156.016 77.2391L154.771 79.0869L155.186 77.9782L156.431 76.1304Z" fill="#A79351" stroke="#A79351"/>
<path opacity="0.290196" d="M417.011 76.1304L417.426 77.9782H416.595L417.011 76.1304Z" fill="#A79351" stroke="#A79351"/>
<path opacity="0.290196" d="M487.55 76.1304L487.965 77.9782H487.135L487.55 76.1304Z" fill="#A79351" stroke="#A79351"/>
<path opacity="0.290196" d="M631.948 76.1304L631.117 77.6086" stroke="#A79351"/>
<path opacity="0.290196" d="M727.383 76.1304L727.798 79.4565H726.967L727.383 76.1304Z" fill="#A79351" stroke="#A79351"/>
<path opacity="0.290196" d="M117.428 76.8696L116.597 78.3479" stroke="#A79351"/>
<path opacity="0.290196" d="M143.153 76.8696L140.663 79.8262" stroke="#A79351"/>
<path opacity="0.290196" d="M509.956 76.8696L509.541 77.9783L508.296 80.5653L507.881 79.4566L509.956 76.8696Z" fill="#A79351" stroke="#A79351"/>
<path opacity="0.290196" d="M602.072 76.8696L602.903 78.3479" stroke="#A79351"/>
<path opacity="0.290196" d="M685.06 76.8696L684.229 78.3479" stroke="#A79351"/>
<path opacity="0.290196" d="M79.2533 77.6086L79.6688 79.4565H78.8379L79.2533 77.6086Z" fill="#A79351" stroke="#A79351"/>
<path opacity="0.290196" d="M91.7009 77.6086L92.1158 78.7173L90.871 80.5652L90.4561 79.4565L91.7009 77.6086Z" fill="#A79351" stroke="#A79351"/>
<path opacity="0.290196" d="M130.705 77.6086L130.29 78.7173L128.215 81.3043L129.46 79.4565L130.705 77.6086Z" fill="#A79351" stroke="#A79351"/>
<path opacity="0.290196" d="M288.381 77.6086L288.796 79.4565H287.965L288.381 77.6086Z" fill="#A79351" stroke="#A79351"/>
<path opacity="0.290196" d="M115.768 79.0869L114.937 80.5652" stroke="#A79351"/>
<path opacity="0.290196" d="M260.165 79.0869L260.581 80.9347H259.75L260.165 79.0869Z" fill="#A79351" stroke="#A79351"/>
<path opacity="0.290196" d="M293.36 79.0869L293.775 111.978H292.945L293.36 79.0869Z" fill="#A79351" stroke="#A79351"/>
<path opacity="0.290196" d="M658.503 79.0869L658.919 80.9347H658.088L658.503 79.0869Z" fill="#A79351" stroke="#A79351"/>
<path opacity="0.290196" d="M153.942 79.8262L153.111 81.3044" stroke="#A79351"/>
<path opacity="0.290196" d="M488.38 79.8262L488.795 111.978H487.964L488.38 79.8262Z" fill="#A79351" stroke="#A79351"/>
<path opacity="0.290196" d="M417.841 80.5652L418.256 111.978H417.425L417.841 80.5652Z" fill="#A79351" stroke="#A79351"/>
<path opacity="0.290196" d="M139.004 81.3044L135.684 85.0001" stroke="#A79351"/>
<path opacity="0.290196" d="M312.447 81.3044L314.936 84.261" stroke="#A79351"/>
<path opacity="0.290196" d="M609.541 81.3044L609.956 83.1523H609.125L609.541 81.3044Z" fill="#A79351" stroke="#A79351"/>
<path opacity="0.290196" d="M629.458 81.3044L629.873 83.8914H629.042L629.458 81.3044Z" fill="#A79351" stroke="#A79351"/>
<path opacity="0.290196" d="M677.59 81.3044L678.006 83.1523H677.175L677.59 81.3044Z" fill="#A79351" stroke="#A79351"/>
<path opacity="0.290196" d="M682.57 81.3044L682.985 83.1523H682.154L682.57 81.3044Z" fill="#A79351" stroke="#A79351"/>
<path opacity="0.290196" d="M716.594 81.3044L717.01 84.6305H716.179L716.594 81.3044Z" fill="#A79351" stroke="#A79351"/>
<path opacity="0.290196" d="M728.212 81.3044L729.457 83.1523L727.797 82.4131L728.212 81.3044Z" fill="#A79351" stroke="#A79351"/>
<path opacity="0.290196" d="M733.191 81.3044L735.681 84.261" stroke="#A79351"/>
<path opacity="0.290196" d="M78.4232 82.0435L78.8387 87.5869H78.0078L78.4232 82.0435Z" fill="#A79351" stroke="#A79351"/>
<path opacity="0.290196" d="M127.385 82.0435L124.896 85" stroke="#A79351"/>
<path opacity="0.290196" d="M663.483 82.0435L663.898 111.978H663.067L663.483 82.0435Z" fill="#A79351" stroke="#A79351"/>
<path opacity="0.290196" d="M151.452 82.7827L150.622 84.261" stroke="#A79351"/>
<path opacity="0.290196" d="M259.335 82.7827L259.751 86.1088H258.92L259.335 82.7827Z" fill="#A79351" stroke="#A79351"/>
<path opacity="0.290196" d="M572.197 82.7827L572.612 84.6305H571.781L572.197 82.7827Z" fill="#A79351" stroke="#A79351"/>
<path opacity="0.290196" d="M308.297 83.5217L310.787 86.4783" stroke="#A79351"/>
<path opacity="0.290196" d="M413.691 83.5217L414.107 86.8478H413.276L413.691 83.5217Z" fill="#A79351" stroke="#A79351"/>
<path opacity="0.290196" d="M484.23 83.5217L484.646 86.8478H483.815L484.23 83.5217Z" fill="#A79351" stroke="#A79351"/>
<path opacity="0.290196" d="M567.218 83.5217L567.633 86.1087H566.802L567.218 83.5217Z" fill="#A79351" stroke="#A79351"/>
<path opacity="0.290196" d="M111.618 84.261L109.128 87.2175" stroke="#A79351"/>
<path opacity="0.290196" d="M506.637 84.261L507.053 88.3262H506.222L506.637 84.261Z" fill="#A79351" stroke="#A79351"/>
<path opacity="0.290196" d="M605.392 84.261L605.807 86.8479H604.976L605.392 84.261Z" fill="#A79351" stroke="#A79351"/>
<path opacity="0.290196" d="M729.872 84.261L731.532 86.4784" stroke="#A79351"/>
<path opacity="0.290196" d="M149.792 85L148.132 87.2174" stroke="#A79351"/>
<path opacity="0.290196" d="M501.658 85L502.073 94.9783H501.242L501.658 85Z" fill="#A79351" stroke="#A79351"/>
<path opacity="0.290196" d="M610.371 85L610.786 94.2391H609.956L610.371 85Z" fill="#A79351" stroke="#A79351"/>
<path opacity="0.290196" d="M658.503 85L658.919 90.5435H658.088L658.503 85Z" fill="#A79351" stroke="#A79351"/>
<path opacity="0.290196" d="M676.761 85L677.176 94.9783H676.345L676.761 85Z" fill="#A79351" stroke="#A79351"/>
<path opacity="0.290196" d="M681.74 85L682.155 86.8478H681.324L681.74 85Z" fill="#A79351" stroke="#A79351"/>
<path opacity="0.290196" d="M123.236 86.4783L118.257 91.6522" stroke="#A79351"/>
<path opacity="0.290196" d="M134.024 86.4783L129.875 90.9131" stroke="#A79351"/>
<path opacity="0.290196" d="M733.191 86.4783L734.022 87.9565" stroke="#A79351"/>
<path opacity="0.290196" d="M259.335 87.2173L259.751 111.978H258.92L259.335 87.2173Z" fill="#A79351" stroke="#A79351"/>
<path opacity="0.290196" d="M399.583 87.2173L404.977 87.5869L399.583 87.9564V87.2173Z" fill="#A79351" stroke="#A79351"/>
<path opacity="0.290196" d="M470.122 87.2173L475.516 87.5869L470.122 87.9564V87.2173Z" fill="#A79351" stroke="#A79351"/>
<path opacity="0.290196" d="M571.367 87.9565L571.783 92.0218H570.952L571.367 87.9565Z" fill="#A79351" stroke="#A79351"/>
<path opacity="0.290196" d="M107.468 88.6956L103.319 93.1303" stroke="#A79351"/>
<path opacity="0.290196" d="M146.472 88.6956L142.323 93.1303" stroke="#A79351"/>
<path opacity="0.290196" d="M409.542 90.1738L413.276 90.5434L409.542 90.913V90.1738Z" fill="#A79351" stroke="#A79351"/>
<path opacity="0.290196" d="M480.081 90.1738L483.815 90.5434L480.081 90.913V90.1738Z" fill="#A79351" stroke="#A79351"/>
<path opacity="0.290196" d="M88.3817 90.9131L88.7972 92.7609H87.9663L88.3817 90.9131Z" fill="#A79351" stroke="#A79351"/>
<path opacity="0.290196" d="M386.306 90.9131L385.475 92.3913" stroke="#A79351"/>
<path opacity="0.290196" d="M456.845 90.9131L456.014 92.3913" stroke="#A79351"/>
<path opacity="0.290196" d="M334.853 91.6521L335.684 93.1304" stroke="#A79351"/>
<path opacity="0.290196" d="M128.215 92.3914L125.726 95.3479" stroke="#A79351"/>
<path opacity="0.290196" d="M506.637 92.3914L507.053 95.7174H506.222L506.637 92.3914Z" fill="#A79351" stroke="#A79351"/>
<path opacity="0.290196" d="M163.9 93.1304L165.144 93.4999L163.485 94.2391V95.7173L161.41 98.3043L162.655 96.4565L163.485 94.9782C162.267 94.3869 162.406 93.771 163.9 93.1304Z" fill="#A79351" stroke="#A79351"/>
<path opacity="0.290196" d="M605.392 93.1304L605.807 95.7173H604.976L605.392 93.1304Z" fill="#A79351" stroke="#A79351"/>
<path opacity="0.290196" d="M89.2112 93.8696L90.8709 96.087" stroke="#A79351"/>
<path opacity="0.290196" d="M115.767 93.8696L113.692 96.4566L114.107 97.5653L113.277 96.8262L110.373 99.4131L111.618 99.7827L112.862 99.4131L110.788 100.522L109.958 99.7827L105.394 103.109L115.767 93.8696Z" fill="#A79351" stroke="#A79351"/>
<path opacity="0.290196" d="M382.987 93.8696L382.156 95.3479" stroke="#A79351"/>
<path opacity="0.290196" d="M388.795 93.8696L387.135 96.087" stroke="#A79351"/>
<path opacity="0.290196" d="M453.526 93.8696L452.695 95.3479" stroke="#A79351"/>
<path opacity="0.290196" d="M459.334 93.8696L457.674 96.087" stroke="#A79351"/>
<path opacity="0.290196" d="M567.218 93.8696L567.633 96.4566H566.802L567.218 93.8696Z" fill="#A79351" stroke="#A79351"/>
<path opacity="0.290196" d="M681.74 93.8696L682.155 96.4566H681.324L681.74 93.8696Z" fill="#A79351" stroke="#A79351"/>
<path opacity="0.290196" d="M751.448 93.8696L752.279 95.3479" stroke="#A79351"/>
<path opacity="0.290196" d="M81.7424 94.6086L84.232 97.5652" stroke="#A79351"/>
<path opacity="0.290196" d="M338.173 94.6086L339.003 96.0869" stroke="#A79351"/>
<path opacity="0.290196" d="M102.489 95.3479L102.904 96.4566L99.9994 97.5653L98.7546 97.1957L102.489 95.3479Z" fill="#A79351" stroke="#A79351"/>
<path opacity="0.290196" d="M117.427 95.3479L120.331 95.7175L117.427 96.087V95.3479Z" fill="#A79351" stroke="#A79351"/>
<path opacity="0.290196" d="M572.197 95.3479L572.612 97.1957H571.781L572.197 95.3479Z" fill="#A79351" stroke="#A79351"/>
<path opacity="0.290196" d="M753.938 95.3479L754.769 96.8262" stroke="#A79351"/>
<path opacity="0.290196" d="M92.5308 96.0869L95.4353 96.4565L92.5308 96.826V96.0869Z" fill="#A79351" stroke="#A79351"/>
<path opacity="0.290196" d="M609.541 96.8262L609.956 98.674H609.125L609.541 96.8262Z" fill="#A79351" stroke="#A79351"/>
<path opacity="0.290196" d="M146.472 97.5652L148.547 97.9348L146.472 98.3043V97.5652Z" fill="#A79351" stroke="#A79351"/>
<path opacity="0.290196" d="M412.861 97.5652L413.277 99.413H412.446L412.861 97.5652Z" fill="#A79351" stroke="#A79351"/>
<path opacity="0.290196" d="M483.401 97.5652L483.816 99.413H482.985L483.401 97.5652Z" fill="#A79351" stroke="#A79351"/>
<path opacity="0.290196" d="M755.598 97.5652L756.843 99.413H756.013L755.598 97.5652Z" fill="#A79351" stroke="#A79351"/>
<path opacity="0.290196" d="M88.3813 98.3044L94.6054 98.674L88.3813 99.0436V98.3044Z" fill="#A79351" stroke="#A79351"/>
<path opacity="0.290196" d="M385.476 99.0435L385.891 103.109H385.06L385.476 99.0435Z" fill="#A79351" stroke="#A79351"/>
<path opacity="0.290196" d="M456.015 99.0435L456.43 103.109H455.599L456.015 99.0435Z" fill="#A79351" stroke="#A79351"/>
<path opacity="0.290196" d="M761.408 99.0435L761.823 102.37H760.992L761.408 99.0435Z" fill="#A79351" stroke="#A79351"/>
<path opacity="0.290196" d="M120.746 99.7827L119.086 102" stroke="#A79351"/>
<path opacity="0.290196" d="M340.663 99.7827L341.078 101.631H340.247L340.663 99.7827Z" fill="#A79351" stroke="#A79351"/>
<path opacity="0.290196" d="M380.496 99.7827L380.912 101.631H380.081L380.496 99.7827Z" fill="#A79351" stroke="#A79351"/>
<path opacity="0.290196" d="M451.036 99.7827L451.451 101.631H450.62L451.036 99.7827Z" fill="#A79351" stroke="#A79351"/>
<path opacity="0.290196" d="M508.296 99.7827L509.541 101.631L507.881 100.891L508.296 99.7827Z" fill="#A79351" stroke="#A79351"/>
<path opacity="0.290196" d="M358.09 100.522L358.505 103.848H357.675L358.09 100.522Z" fill="#A79351" stroke="#A79351"/>
<path opacity="0.290196" d="M412.031 100.522L412.446 101.63L410.786 102.37L412.031 100.522Z" fill="#A79351" stroke="#A79351"/>
<path opacity="0.290196" d="M482.57 100.522L482.985 101.63L481.325 102.37L482.57 100.522Z" fill="#A79351" stroke="#A79351"/>
<path opacity="0.290196" d="M157.261 101.261L155.601 103.478" stroke="#A79351"/>
<path opacity="0.290196" d="M602.903 102L602.072 103.478" stroke="#A79351"/>
<path opacity="0.290196" d="M684.229 102L685.06 103.478" stroke="#A79351"/>
<path opacity="0.290196" d="M131.535 102.739L132.779 103.109L123.236 110.869L131.535 102.739Z" fill="#A79351" stroke="#A79351"/>
<path opacity="0.290196" d="M569.707 102.739L570.538 104.217" stroke="#A79351"/>
<path opacity="0.290196" d="M117.428 103.478L116.597 104.957" stroke="#A79351"/>
<path opacity="0.290196" d="M410.371 103.478L407.052 107.174" stroke="#A79351"/>
<path opacity="0.290196" d="M480.911 103.478L477.591 107.174" stroke="#A79351"/>
<path opacity="0.290196" d="M575.516 103.478L578.835 107.174" stroke="#A79351"/>
<path opacity="0.290196" d="M601.242 104.217L599.582 106.435" stroke="#A79351"/>
<path opacity="0.290196" d="M685.889 104.217L687.548 106.435" stroke="#A79351"/>
<path opacity="0.290196" d="M104.149 104.957L102.489 107.174" stroke="#A79351"/>
<path opacity="0.290196" d="M358.919 104.957L360.164 106.804L358.504 106.065L358.919 104.957Z" fill="#A79351" stroke="#A79351"/>
<path opacity="0.290196" d="M505.807 104.957L506.638 106.435" stroke="#A79351"/>
<path opacity="0.290196" d="M606.222 104.957L605.391 106.435" stroke="#A79351"/>
<path opacity="0.290196" d="M680.909 104.957L681.74 106.435" stroke="#A79351"/>
<path opacity="0.290196" d="M115.768 105.696L114.937 107.174" stroke="#A79351"/>
<path opacity="0.290196" d="M141.493 105.696L144.398 106.065L141.493 106.435V105.696Z" fill="#A79351" stroke="#A79351"/>
<path opacity="0.290196" d="M146.472 105.696L148.547 106.065L146.472 106.435V105.696Z" fill="#A79351" stroke="#A79351"/>
<path opacity="0.290196" d="M387.135 105.696L388.795 107.913" stroke="#A79351"/>
<path opacity="0.290196" d="M457.674 105.696L459.334 107.913" stroke="#A79351"/>
<path opacity="0.290196" d="M413.691 106.435L414.107 109.022H413.276L413.691 106.435Z" fill="#A79351" stroke="#A79351"/>
<path opacity="0.290196" d="M484.23 106.435L484.646 109.022H483.815L484.23 106.435Z" fill="#A79351" stroke="#A79351"/>
<path opacity="0.290196" d="M514.105 106.435L514.936 107.913" stroke="#A79351"/>
<path opacity="0.290196" d="M714.104 106.435C715.985 105.991 716.4 107.1 715.349 109.761L713.689 110.5L714.519 107.544L714.104 106.435Z" fill="#A79351" stroke="#A79351"/>
<path opacity="0.290196" d="M759.747 106.435L756.428 110.13" stroke="#A79351"/>
<path opacity="0.290196" d="M338.173 107.174L335.683 110.13" stroke="#A79351"/>
<path opacity="0.290196" d="M354.77 107.174L356.015 109.022L354.355 108.283L354.77 107.174Z" fill="#A79351" stroke="#A79351"/>
<path opacity="0.290196" d="M411.202 107.174L410.371 108.652" stroke="#A79351"/>
<path opacity="0.290196" d="M481.741 107.174L480.91 108.652" stroke="#A79351"/>
<path opacity="0.290196" d="M535.682 107.174C537.563 106.73 537.978 107.839 536.927 110.5L535.267 111.239L536.097 108.283L535.682 107.174Z" fill="#A79351" stroke="#A79351"/>
<path opacity="0.290196" d="M573.026 107.174L573.857 108.652" stroke="#A79351"/>
<path opacity="0.290196" d="M382.986 107.913L385.475 110.87" stroke="#A79351"/>
<path opacity="0.290196" d="M453.525 107.913L456.014 110.87" stroke="#A79351"/>
<path opacity="0.290196" d="M95.8507 108.652L96.2662 113.456H95.4353L95.8507 108.652Z" fill="#A79351" stroke="#A79351"/>
<path opacity="0.290196" d="M314.936 108.652L317.011 109.022L314.936 109.391V108.652Z" fill="#A79351" stroke="#A79351"/>
<path opacity="0.290196" d="M372.197 108.652L374.272 109.761L373.857 111.609L373.442 109.391L372.197 108.652Z" fill="#A79351" stroke="#A79351"/>
<path opacity="0.290196" d="M509.956 108.652L510.787 110.13" stroke="#A79351"/>
<path opacity="0.290196" d="M602.073 108.652L601.242 110.13" stroke="#A79351"/>
<path opacity="0.290196" d="M658.503 108.652L658.919 111.978H658.088L658.503 108.652Z" fill="#A79351" stroke="#A79351"/>
<path opacity="0.290196" d="M685.059 108.652L685.89 110.13" stroke="#A79351"/>
<path opacity="0.290196" d="M704.976 108.652L707.051 109.022L704.976 109.391V108.652Z" fill="#A79351" stroke="#A79351"/>
<path opacity="0.290196" d="M231.95 109.391L232.365 111.239H231.534L231.95 109.391Z" fill="#A79351" stroke="#A79351"/>
<path opacity="0.290196" d="M407.883 109.391L407.052 110.87" stroke="#A79351"/>
<path opacity="0.290196" d="M478.422 109.391L477.591 110.87" stroke="#A79351"/>
<path opacity="0.290196" d="M576.346 109.391L577.177 110.87" stroke="#A79351"/>
<path opacity="0.290196" d="M99.9994 110.13L99.5845 111.239L99.1696 112.348L98.7546 111.239L99.9994 110.13Z" fill="#A79351" stroke="#A79351"/>
<path opacity="0.290196" d="M111.618 110.87L111.203 111.978L109.958 113.826L110.373 112.717L111.618 110.87Z" fill="#A79351" stroke="#A79351"/>
<path opacity="0.290196" d="M313.276 112.348L315.351 112.717L313.276 113.087V112.348Z" fill="#A79351" stroke="#A79351"/>
<path opacity="0.290196" d="M325.725 112.348L327.799 112.717L325.725 113.087V112.348Z" fill="#A79351" stroke="#A79351"/>
<path opacity="0.290196" d="M518.255 112.348L520.329 112.717L518.255 113.087V112.348Z" fill="#A79351" stroke="#A79351"/>
<path opacity="0.290196" d="M529.043 112.348L531.118 112.717L529.043 113.087V112.348Z" fill="#A79351" stroke="#A79351"/>
<path opacity="0.290196" d="M704.976 112.348L707.051 112.717L704.976 113.087V112.348Z" fill="#A79351" stroke="#A79351"/>
<path opacity="0.290196" d="M734.021 112.348L736.096 112.717L734.021 113.087V112.348Z" fill="#A79351" stroke="#A79351"/>
<path opacity="0.290196" d="M98.3398 113.087L98.7547 116.783L97.095 116.413L98.3398 113.087Z" fill="#A79351" stroke="#A79351"/>
<path opacity="0.290196" d="M118.257 115.304L116.597 117.522" stroke="#A79351"/>
<path opacity="0.290196" d="M108.299 116.043L107.468 117.522" stroke="#A79351"/>
<path opacity="0.290196" d="M114.937 119L113.277 121.217" stroke="#A79351"/>
<path opacity="0.290196" d="M111.619 122.696L110.788 124.174" stroke="#A79351"/>
<path opacity="0.290196" d="M109.129 126.391L108.298 127.87" stroke="#A79351"/>
<path opacity="0.290196" d="M102.49 127.13L102.905 133.413H102.074L102.49 127.13Z" fill="#A79351" stroke="#A79351"/>
<path opacity="0.290196" d="M104.979 133.783L105.395 136.37H104.564L104.979 133.783Z" fill="#A79351" stroke="#A79351"/>
<path opacity="0.996078" d="M144.813 26.6086L156.431 28.0869L161.825 32.1521L162.655 37.326C161.327 42.3028 158.699 46.1217 154.771 48.7826L143.983 53.9565H132.365L130.29 52.8478C138.81 50.0884 145.449 45.6536 150.207 39.5434L152.696 35.8478L153.526 32.1521L150.622 28.826L144.813 28.0869C138.893 28.9739 133.914 30.6985 129.875 33.2608L120.331 40.2826L119.087 42.1304L115.352 44.7173C108.437 51.3695 102.351 58.7608 97.095 66.8913L88.7963 82.413L87.9664 93.4999L90.871 96.826H96.6801L101.659 94.6086L112.033 85.3695L119.502 75.0217L121.161 68.7391H129.875L131.95 69.4782L132.779 73.5434L125.311 83.8913L102.074 106.065L97.51 114.565C96.0162 113.974 95.6013 112.372 96.2652 109.761C97.8696 103.799 100.636 98.871 104.564 94.9782L102.489 94.6086C99.7229 97.5652 95.0203 98.7971 88.3814 98.3043C84.564 97.5159 81.936 95.6681 80.4976 92.7608L79.6677 90.5434V78.7173L82.1573 71.326L87.9664 60.2391C92.8903 53.0449 98.8378 46.7623 105.809 41.3913C111.728 36.8086 118.644 33.113 126.555 30.3043L144.813 26.6086Z" fill="#A79351" stroke="#A79351"/>
<path opacity="0.996078" d="M434.853 49.5217L437.342 49.8913V112.348L434.853 111.978V49.5217Z" fill="#A79351" stroke="#A79351"/>
<path opacity="0.996078" d="M233.194 53.2173L236.513 53.5869V112.348L233.194 111.978V53.2173Z" fill="#A79351" stroke="#A79351"/>
<path opacity="0.996078" d="M549.375 53.2173H552.694V54.326L553.524 58.0216L552.694 59.8695H549.375V58.7608L548.545 55.0651L549.375 53.2173Z" fill="#A79351" stroke="#A79351"/>
<path opacity="0.996078" d="M211.202 54.6956L211.617 58.0216L207.883 63.5651L202.074 65.7825L187.136 66.5216L186.306 65.7825H176.348L156.016 62.826L158.505 66.1521V72.0651L151.036 83.1521L137.759 97.5651C141.299 98.5999 146.14 98.8463 152.281 98.3043C153.001 97.2202 154.66 96.9738 157.261 97.5651L162.24 95.3477L160.995 97.1956L156.431 102C153.388 104.71 148.685 105.942 142.323 105.696L130.705 102.739L110.373 123.065L104.149 134.522C102.71 133.339 102.295 131.245 102.904 128.239L105.394 121.587L112.862 109.761L121.991 99.4129L116.597 97.5651L113.277 99.0434L114.107 97.5651C117.205 96.0376 121.216 95.5448 126.14 96.0869L148.547 72.0651L152.696 66.1521V63.5651C150.539 62.3825 146.804 62.1361 141.493 62.826L135.684 65.0434L136.514 63.5651C140.165 60.9043 144.868 59.1796 150.622 58.3912C154.107 59.2289 156.32 58.9825 157.261 57.6521H203.733L209.542 56.1738L211.202 54.6956Z" fill="#A79351" stroke="#A79351"/>
<path opacity="0.996078" d="M356.43 58.3914L356.845 68.7392H371.367L371.782 71.6957H358.089L356.845 72.8044V100.891L358.504 106.804L360.579 108.652C362.405 109.983 365.171 110.475 368.878 110.13L372.612 109.391C373.885 112.545 372.363 113.53 368.048 112.348L364.728 113.087L358.919 111.609L356.015 109.022L353.525 101.63V71.6957H347.301L346.886 70.587L354.355 67.6305L356.43 58.3914Z" fill="#A79351" stroke="#A79351"/>
<path opacity="0.996078" d="M275.102 67.261L285.061 68.7392L289.625 72.0653L292.945 79.4566V112.348L289.625 111.978V79.4566L285.061 72.4349L281.741 70.9566H269.293L261.409 75.761L258.92 80.9349C259.916 84.0392 259.639 86.0103 258.09 86.8479V112.348L255.6 111.978V68.7392C258.533 67.8523 259.362 69.2074 258.09 72.8045L259.335 74.6523L264.314 70.2175L275.102 67.261Z" fill="#A79351" stroke="#A79351"/>
<path opacity="0.996078" d="M322.405 67.261L332.364 68.0001L338.588 70.5871L337.343 73.174C332.751 70.6117 326.112 69.8726 317.426 70.9566L311.202 75.0219L310.372 79.4566L314.106 84.261L332.364 90.9132L338.588 95.7175C340.081 97.59 340.358 100.546 339.417 104.587L335.683 109.391L328.214 112.348L318.256 113.087L309.127 111.609L306.223 109.761C305.393 107.593 305.808 106.731 307.467 107.174C312.281 109.786 319.196 110.525 328.214 109.391C331.81 108.652 334.438 107.051 336.098 104.587L336.928 100.891C336.264 98.0827 334.742 95.9885 332.364 94.6088L313.276 87.2175L307.882 82.4132L307.052 75.761L311.617 70.2175L322.405 67.261Z" fill="#A79351" stroke="#A79351"/>
<path opacity="0.996078" d="M523.234 67.261L532.363 68.0001L536.097 69.8479L534.852 72.4349L530.703 70.9566H518.255C514.548 72.09 511.643 73.9378 509.541 76.5001L506.222 83.1523L505.392 93.5001L507.881 101.631L513.275 107.174L518.255 109.391H531.533L536.097 107.913V110.87H534.852L531.533 112.348L522.404 113.087L513.275 110.87L507.051 106.065C502.847 101.68 501.187 95.0277 502.072 86.1088L504.562 77.9784L512.446 70.2175L523.234 67.261Z" fill="#A79351" stroke="#A79351"/>
<path opacity="0.996078" d="M587.134 67.261C595.654 67.3103 601.602 69.6508 604.976 74.2827L609.126 81.674L609.956 94.2392L606.636 103.848L601.242 109.391L594.603 112.348L587.134 113.087L577.176 110.131L571.781 105.326C567.798 100.497 566.415 93.3523 567.632 83.8914C568.905 77.6335 572.086 73.0755 577.176 70.2175L587.134 67.261ZM583.4 70.9566L578.42 73.174C574.548 75.6378 572.058 79.5798 570.952 85.0001V95.3479L575.101 104.957L583.4 109.391H595.018L598.337 107.913L603.317 103.478L606.636 93.1306L605.806 83.5219L603.317 77.6088C600.55 71.6958 593.911 69.4784 583.4 70.9566Z" fill="#A79351" stroke="#A79351"/>
<path opacity="0.996078" d="M644.395 67.261L652.694 68.0001L660.578 73.5436L663.067 82.4132V112.348L659.748 111.978V81.674L656.428 73.174L651.864 70.9566H639.416C635.432 71.8436 632.528 73.6914 630.702 76.5001L628.213 83.8914V112.348L624.893 111.978V68.7392L628.213 69.8479C627.549 72.4595 627.964 74.061 629.457 74.6523L635.266 69.4784L644.395 67.261Z" fill="#A79351" stroke="#A79351"/>
<path opacity="0.996078" d="M696.677 67.261C704.588 67.3595 709.983 69.7001 712.859 74.2827L716.179 82.4132V90.174H681.739L680.494 91.2827C680.605 99.3146 683.51 104.858 689.208 107.913L693.358 109.391H707.465L714.104 107.174L714.519 110.131L707.465 112.348L697.507 113.087L688.378 110.87L682.154 106.065C677.95 101.68 676.29 95.0277 677.175 86.1088L679.665 77.9784L685.889 70.9566L690.038 68.7392L696.677 67.261ZM697.092 70.2175L692.943 70.9566L686.304 73.9132L681.324 83.5219C680.771 85.9856 681.048 87.2175 682.154 87.2175H712.859C712.859 81.7972 711.476 77.6088 708.71 74.6523C706.497 71.6958 702.624 70.2175 697.092 70.2175Z" fill="#A79351" stroke="#A79351"/>
<path opacity="0.996078" d="M743.15 67.261L753.108 68.0001L759.332 70.5871L758.088 73.174C753.496 70.6117 746.857 69.8726 738.171 70.9566L731.947 75.0219L731.117 78.7175L734.021 83.5219L741.49 87.2175L754.768 91.6523L759.332 95.7175L760.992 101.631L758.503 107.544L756.428 109.391L749.789 112.348L739.83 113.087L739.001 112.348L729.872 111.609L726.967 109.761C726.138 107.593 726.552 106.731 728.212 107.174C733.025 109.786 739.941 110.525 748.959 109.391C752.555 108.652 755.183 107.051 756.843 104.587L757.673 100.152L753.108 94.6088L734.021 87.2175L729.457 83.1523C728.019 81.7233 727.465 79.5059 727.797 76.5001C728.517 73.6914 730.038 71.5972 732.362 70.2175L743.15 67.261Z" fill="#A79351" stroke="#A79351"/>
<path opacity="0.996078" d="M400.413 68L407.882 68.7391L414.936 73.5435L417.425 80.9348V112.348C414.714 113.235 413.884 112.126 414.936 109.022L414.106 104.957L402.073 112.348L394.604 113.087L387.965 111.609L384.23 109.022L381.741 105.326L380.911 100.152C381.575 96.3087 383.373 93.4754 386.305 91.6522L397.093 87.9565C404.286 88.5971 409.956 88.3507 414.106 87.2174L413.276 77.2391L408.712 72.4348L403.732 70.9565H398.753L387.965 73.913L386.72 70.9565L400.413 68ZM404.977 90.1739L404.147 90.913H397.508L390.039 93.1304L385.06 98.3043C384.507 102.246 385.06 105.203 386.72 107.174L391.699 109.391C398.891 110.377 404.424 109.638 408.297 107.174L412.446 102.739L414.106 97.5652V90.1739H404.977Z" fill="#A79351" stroke="#A79351"/>
<path opacity="0.996078" d="M470.952 68L478.421 68.7391L485.475 73.5435L487.964 80.9348V112.348C485.253 113.235 484.424 112.126 485.475 109.022L484.645 104.957L472.612 112.348L465.143 113.087L458.504 111.609L454.769 109.022L452.28 105.326L451.45 100.152C452.114 96.3087 453.912 93.4754 456.844 91.6522L467.632 87.9565C474.825 88.5971 480.495 88.3507 484.645 87.2174L483.815 77.2391L479.251 72.4348L474.271 70.9565H469.292L458.504 73.913L457.259 70.9565L470.952 68ZM475.516 90.1739L474.686 90.913H468.047L460.579 93.1304L455.599 98.3043C455.046 102.246 455.599 105.203 457.259 107.174L462.238 109.391C469.43 110.377 474.963 109.638 478.836 107.174L482.985 102.739L484.645 97.5652V90.1739H475.516Z" fill="#A79351" stroke="#A79351"/>
<path opacity="0.996078" d="M549.375 68.739L552.694 69.1086V112.348L549.375 111.978V68.739Z" fill="#A79351" stroke="#A79351"/>
</svg>
