<svg width="711" height="122" viewBox="0 0 711 122" fill="none" xmlns="http://www.w3.org/2000/svg">
<path d="M60.114 5.97479C38.7818 11.0629 19.7536 26.019 9.51413 45.6007C5.50369 53.4642 3.62646 59.6317 3.62646 65.4907C3.62646 71.0414 5.07705 74.4335 8.66085 77.1318C10.9647 78.8279 12.2446 79.2133 16.2551 79.2133C19.2416 79.2133 22.5694 78.5966 24.7879 77.6715C26.8358 76.8234 28.3717 76.438 28.2011 76.7463C28.0304 77.0547 26.4945 79.9072 24.7026 83.068C21.4601 88.9271 20.6068 94.4007 22.3987 96.9448C23.0814 97.8699 23.252 97.8699 23.252 96.5593C23.252 93.6298 28.2864 87.231 37.7579 78.0569C48.7653 67.4181 55.6769 59.8629 57.7248 56.3166C60.7966 50.843 58.4074 47.6051 51.3251 47.6051C47.4853 47.6051 47.4 47.6051 46.3761 50.843C44.8401 55.5457 40.2324 62.0986 34.1741 68.189C26.0679 76.3609 19.4976 79.1362 15.4871 76.2067C12.33 73.8939 12.6713 66.8784 16.3404 58.9378C22.996 44.6756 38.6965 25.0168 50.3012 16.3824C64.0391 6.12897 79.5689 3.43072 79.5689 11.2171C79.5689 12.2193 78.8009 14.3009 77.777 15.6885C75.1318 19.6203 64.551 28.1005 59.6873 30.1821L55.2502 32.0323L57.6394 32.8803C64.6364 35.2702 75.5584 32.649 82.3847 26.867C87.3338 22.704 89.723 18.4639 89.8083 13.8383C89.8083 9.75236 86.7365 6.59154 81.6167 5.28095C76.5824 4.04746 67.1109 4.35583 60.114 5.97479Z" fill="#A79351"/>
<path d="M368.833 61.0962V93.8608H370.966H373.099V61.0962V28.3316H370.966H368.833V61.0962Z" fill="#A79351"/>
<path d="M161.484 63.0236V93.8608H163.618H165.751V63.0236V32.1863H163.618H161.484V63.0236Z" fill="#A79351"/>
<path d="M135.886 34.9617C133.752 35.6556 127.182 35.964 112.42 36.041C89.1257 36.041 78.033 36.8891 70.524 39.1248C65.1483 40.7437 59.9433 44.5213 59.9433 46.757C60.0286 47.8363 60.114 47.8363 60.8819 46.6028C62.4178 44.29 66.9402 42.7482 72.3159 42.6711C79.3129 42.6711 79.9102 43.1336 77.9476 46.757C75.9851 50.2262 68.1348 59.3232 58.6634 69.0369C52.9464 74.9731 51.4104 76.1295 49.2772 76.1295C45.5228 76.1295 40.7444 77.5172 38.4405 79.2132C37.3312 80.0613 36.9046 80.678 37.5019 80.7551C38.0139 80.7551 38.7818 80.3696 39.0378 79.9842C39.7204 78.982 46.0347 78.982 46.7174 79.9071C46.9734 80.2925 45.0961 83.2221 42.451 86.3058C39.8911 89.3895 35.7953 95.2486 33.3208 99.1804C29.5663 105.348 28.7984 107.275 28.5424 111.284C28.3717 113.905 28.6277 116.681 29.1397 117.451C29.9077 118.762 29.993 118.762 30.0783 117.606C30.0783 115.37 36.0513 106.042 40.7444 100.799C43.2189 98.024 48.0826 93.09 51.4958 89.775L57.8101 83.6847L60.4553 84.9181C66.8549 87.8477 74.1932 87.9248 80.2515 85.0723C83.3233 83.6076 89.1257 78.6736 90.5762 76.2837C91.4295 74.896 91.1735 74.896 86.3098 76.6692C82.2141 78.1339 79.7395 78.5194 73.4252 78.5194C69.1588 78.5194 65.4897 78.2881 65.2337 78.1339C64.9777 77.9027 66.6843 75.744 68.9881 73.3542C79.5689 62.4069 86.3951 52.6161 86.3951 48.376C86.3951 47.2967 85.7979 45.6006 85.0299 44.6755C83.75 43.0565 83.8353 42.9794 86.1392 42.9794C87.4191 42.9794 92.8801 43.6733 98.2558 44.5213C111.311 46.6028 128.035 46.6028 132.985 44.5984C137.422 42.7482 140.152 39.6644 140.152 36.3494C140.152 33.497 140.152 33.497 135.886 34.9617Z" fill="#A79351"/>
<path d="M287.685 39.279C287.685 40.2812 287.173 42.594 286.661 44.4443C285.723 47.528 285.296 47.9906 282.224 48.6844C280.176 49.2241 278.726 50.0721 278.555 50.9201C278.299 51.9994 278.896 52.2307 282.139 52.2307H286.064V68.3432C286.064 77.2089 286.32 85.535 286.576 86.8455C287.856 92.3963 294.768 95.5571 303.044 94.2465C305.69 93.861 306.543 93.3985 306.543 92.2421C306.543 90.9315 305.86 90.7773 301.338 90.7773C291.013 90.7773 290.33 89.3125 290.33 68.0348V52.2307H297.583C304.751 52.2307 304.836 52.2307 304.836 50.3034C304.836 48.376 304.751 48.376 297.583 48.376H290.33V42.9795C290.33 38.6623 290.074 37.583 289.05 37.583C288.283 37.583 287.771 38.3539 287.685 39.279Z" fill="#A79351"/>
<path d="M200.309 47.5278C196.469 48.3758 192.288 50.5345 191.093 52.2305C189.813 54.1578 188.789 54.2349 188.789 52.3076C188.789 49.7635 187.851 48.3758 186.144 48.3758C184.608 48.3758 184.523 49.301 184.523 71.1183V93.8608H186.656H188.789V78.9819C188.789 58.7063 190.069 55.0059 198.346 51.845C202.442 50.3803 210.292 50.3803 213.62 51.845C214.985 52.5389 216.948 54.1578 217.801 55.5455C219.337 57.7812 219.508 59.5544 219.508 75.8981V93.8608H221.641H223.774V76.2836C223.774 66.6469 223.347 57.4728 222.921 55.931C220.788 49.1468 210.548 45.2921 200.309 47.5278Z" fill="#A79351"/>
<path d="M248.946 47.5279C241.522 49.301 238.28 52.6931 238.28 58.7064C238.28 64.5655 242.802 67.9576 256.113 72.3519C263.025 74.5876 268.145 78.7506 268.145 82.1427C268.145 85.3036 264.561 89.004 260.636 90.0063C254.663 91.471 244.679 90.623 238.109 88.0789C236.829 87.6164 236.573 87.9247 236.573 89.5437C236.573 92.242 240.328 93.7067 248.69 94.3235C265.841 95.6341 276.08 87.9247 271.217 77.363C269.681 74.125 266.609 72.1206 258.247 69.114C245.191 64.4113 242.546 62.5611 242.546 58.1668C242.546 54.9288 243.826 53.3099 247.666 51.9222C251.932 50.3803 258.588 50.3032 264.732 51.768C269.851 53.0015 270.705 52.8473 270.705 50.6887C270.705 49.6865 269.766 48.9927 267.547 48.3759C263.281 47.2195 252.188 46.757 248.946 47.5279Z" fill="#A79351"/>
<path d="M453.308 48.2989C449.98 49.3782 447.591 50.843 444.946 53.3871C440.082 58.321 438.546 63.255 438.973 72.9687C439.229 79.3675 439.655 80.9093 441.789 84.4556C446.226 91.8566 454.161 95.2487 464.913 94.4006C471.398 93.861 473.787 92.8588 473.787 90.6231C473.787 89.3896 473.445 89.1583 471.91 89.5438C468.496 90.4689 459.537 91.0085 456.38 90.4689C452.54 89.775 447.847 86.1517 445.372 81.9886C443.751 79.2904 443.495 77.5943 443.495 70.733C443.495 63.8717 443.751 62.1757 445.372 59.4774C447.676 55.6228 451.345 52.6932 455.526 51.4597C458.598 50.5346 467.814 50.7659 471.739 51.8452C473.104 52.2307 473.701 51.9994 474.043 50.6888C474.64 48.5302 471.91 47.6051 463.974 47.1425C459.452 46.8341 456.892 47.1425 453.308 48.2989Z" fill="#A79351"/>
<path d="M521.571 47.528C515.854 49.147 511.075 52.6933 508.515 57.2418C505.102 63.4092 504.676 74.2794 507.492 81.6032C511.502 91.7795 522.68 96.7135 534.711 93.5527C544.609 90.9315 549.729 83.1451 549.729 70.7331C549.729 62.2528 547.596 56.4708 542.818 52.1536C537.954 47.7593 528.397 45.6778 521.571 47.528ZM537.527 53.1558C539.66 54.3893 541.708 56.625 542.988 58.9378C544.78 62.0986 545.036 63.7176 545.036 70.7331C545.036 77.7486 544.78 79.3675 542.988 82.5283C540.087 87.8478 535.735 90.3147 528.482 90.6231C523.875 90.7773 522.253 90.546 519.437 89.0813C513.209 85.7662 510.307 79.8301 510.222 70.5789C510.222 61.3277 513.635 54.929 520.291 51.8452C524.387 49.9179 533.261 50.6117 537.527 53.1558Z" fill="#A79351"/>
<path d="M579.936 47.682C577.973 48.0675 574.901 49.6093 572.939 51.0741C569.355 53.8495 568.502 53.6182 568.502 49.8406C568.502 48.9155 567.904 48.3758 566.795 48.3758C565.088 48.3758 565.088 48.9155 565.088 71.1183V93.8608H567.136H569.269L569.525 77.0545C569.781 62.6381 570.037 59.9398 571.403 57.4728C573.621 53.3869 577.717 51.3054 584.543 50.8428C592.394 50.3803 596.148 51.845 598.367 56.2394C599.817 59.1689 600.073 61.4046 600.073 76.6691V93.8608H602.206H604.34V76.6691C604.34 66.6469 603.913 58.3209 603.401 56.4706C601.012 48.7613 591.711 45.2921 579.936 47.682Z" fill="#A79351"/>
<path d="M633.266 48.0675C630.535 48.7613 628.146 50.3032 625.416 52.9244C620.125 58.0125 618.504 63.0236 619.016 72.9686C619.272 79.3674 619.699 80.9092 621.832 84.4555C626.354 92.0106 634.631 95.3256 645.98 94.3234C653.318 93.6296 657.243 92.0877 657.243 89.9291C657.243 88.7727 656.902 88.4643 655.878 88.7727C651.611 90.2375 646.321 90.9313 640.775 90.623C635.74 90.4688 633.778 90.0062 631.047 88.3102C626.951 85.9203 624.136 81.1405 623.368 75.4356L622.856 71.5038H641.457H660.059L659.462 65.876C658.011 51.2283 647.516 44.0587 633.266 48.0675ZM647.857 52.3847C651.441 54.6204 654.001 59.0147 654.513 63.8716L654.939 67.6492H638.897H622.941L623.538 65.1051C625.672 55.3914 630.962 50.7658 640.263 50.6887C643.847 50.6887 645.724 51.1512 647.857 52.3847Z" fill="#A79351"/>
<path d="M680.282 48.0677C678.149 48.6844 675.845 49.6095 675.162 50.1492C668.763 54.6977 669.787 63.6405 677.039 67.6494C678.575 68.4974 683.354 70.4247 687.535 71.8895C691.801 73.4313 695.982 75.2045 697.006 75.9754C703.235 80.7552 701.273 87.9249 693.167 90.0064C687.279 91.4712 677.295 90.6231 670.725 88.0791C669.445 87.6165 669.189 87.9249 669.189 89.5438C669.189 92.2421 672.944 93.7069 681.306 94.3236C695.044 95.4029 704.003 91.1628 704.771 83.3764C705.539 76.3609 701.955 72.8146 690.265 68.8058C681.988 66.0304 678.063 64.1031 676.527 62.0986C674.992 60.1713 674.736 56.7021 676.015 54.6206C678.063 50.9972 689.583 49.6095 697.86 51.8452C701.699 52.9246 702.126 52.8475 703.15 51.6911C704.601 49.9179 703.491 49.147 697.604 47.9135C691.375 46.6029 685.231 46.6029 680.282 48.0677Z" fill="#A79351"/>
<path d="M329.582 48.0676C328.387 48.2989 325.571 48.9927 323.353 49.6095C319.769 50.6888 319.342 51.0743 319.854 52.4619C320.195 53.3871 320.451 54.2351 320.537 54.3122C320.622 54.4664 322.755 53.8496 325.144 53.0016C330.435 51.1513 338.882 50.9972 342.295 52.6161C345.282 54.0038 347.159 57.473 347.842 63.1008L348.439 67.3409L337.346 68.1889C327.619 68.8828 325.827 69.1912 321.817 71.2727C316.612 73.9709 314.222 77.2859 314.222 82.1428C314.222 90.2376 321.561 95.3258 331.715 94.4006C337.005 93.9381 340.845 92.3191 344.685 89.0041C347.671 86.46 348.013 86.6913 348.524 91.1627C348.695 92.6275 349.292 93.5526 350.316 93.7068C351.682 93.9381 351.767 92.7046 351.767 75.9754C351.767 58.7836 351.682 57.7814 349.89 54.5434C348.78 52.6161 346.733 50.4575 345.111 49.6866C342.295 48.2218 333.933 47.3738 329.582 48.0676ZM347.501 74.9731C347.501 79.4446 345.879 83.916 343.405 86.46C339.309 90.6231 328.216 92.1649 323.011 89.2354C319.257 87.231 317.721 82.7596 319.427 78.6736C321.475 73.5855 327.448 71.8894 345.623 70.8101C347.33 70.733 347.501 71.0414 347.501 74.9731Z" fill="#A79351"/>
<path d="M402.111 48.0676C400.916 48.2989 398.1 48.9927 395.882 49.6095C392.298 50.6888 391.871 51.0743 392.383 52.4619C392.724 53.3871 392.98 54.2351 393.066 54.3122C393.151 54.4664 395.284 53.8496 397.674 53.0016C402.964 51.1513 411.411 50.9972 414.825 52.6161C417.811 54.0038 419.688 57.473 420.371 63.1008L420.968 67.3409L409.875 68.1889C400.148 68.8828 398.356 69.1912 394.346 71.2727C389.141 73.9709 386.751 77.2859 386.751 82.1428C386.751 90.2376 394.09 95.3258 404.244 94.4006C409.534 93.9381 413.374 92.3191 417.214 89.0041C420.2 86.46 420.542 86.6913 421.054 91.1627C421.224 92.6275 421.821 93.5526 422.845 93.7068C424.211 93.9381 424.296 92.7046 424.296 75.9754C424.296 58.7836 424.211 57.7814 422.419 54.5434C421.31 52.6161 419.262 50.4575 417.64 49.6866C414.825 48.2218 406.462 47.3738 402.111 48.0676ZM420.03 74.9731C420.03 79.4446 418.408 83.916 415.934 86.46C411.838 90.6231 400.745 92.1649 395.54 89.2354C391.786 87.231 390.25 82.7596 391.957 78.6736C394.004 73.5855 399.977 71.8894 418.152 70.8101C419.859 70.733 420.03 71.0414 420.03 74.9731Z" fill="#A79351"/>
<path d="M487.439 71.1183C487.439 93.3212 487.439 93.8608 489.146 93.8608C490.852 93.8608 490.852 93.3212 490.852 71.1183C490.852 48.9155 490.852 48.3758 489.146 48.3758C487.439 48.3758 487.439 48.9155 487.439 71.1183Z" fill="#A79351"/>
</svg>
