<svg width="400" height="326" viewBox="0 0 400 326" fill="none" xmlns="http://www.w3.org/2000/svg">
<g clip-path="url(#clip0_38_8)">
<path d="M117.245 307.081C118.772 308.531 120.646 309.563 122.688 310.079C124.729 310.594 126.869 310.575 128.901 310.024C134.109 308.545 137.644 303.846 140.781 299.434L150.064 286.386L142.241 287.82C136.615 288.852 130.849 289.935 125.95 292.887C121.05 295.838 117.126 301.108 117.436 306.819" fill="#E6E6E6"/>
<path d="M109.973 324.658C111.345 319.98 112.725 315.238 115.148 310.974C117.299 307.188 120.238 303.866 124.117 301.8C126.174 300.707 128.406 299.981 130.712 299.655C131.314 299.57 131.412 300.506 130.813 300.591C126.82 301.162 123.11 302.986 120.22 305.8C117.017 308.935 114.916 312.976 113.362 317.135C112.421 319.65 111.662 322.226 110.907 324.802C110.884 324.924 110.816 325.032 110.716 325.106C110.617 325.179 110.492 325.211 110.37 325.196C110.246 325.176 110.136 325.109 110.062 325.008C109.988 324.907 109.957 324.782 109.976 324.658L109.973 324.658Z" fill="#F2F2F2"/>
<path d="M261.042 136.25C261.933 136.035 262.861 136.018 263.76 136.201C264.659 136.383 265.507 136.761 266.244 137.306C266.981 137.852 267.59 138.553 268.027 139.359C268.464 140.165 268.719 141.058 268.774 141.973L290.236 148.007L281.479 155.591L262.44 148.699C260.896 148.689 259.409 148.114 258.261 147.081C257.113 146.048 256.384 144.63 256.212 143.096C256.039 141.561 256.436 140.017 257.326 138.755C258.216 137.493 259.538 136.602 261.042 136.25Z" fill="#FFB7B7"/>
<path d="M316.194 319L309.938 318.999L306.961 294.869L316.195 294.87L316.194 319Z" fill="#FFB7B7"/>
<path d="M317.789 325.064L297.617 325.063V324.808C297.618 322.726 298.445 320.729 299.917 319.257C301.39 317.784 303.387 316.957 305.469 316.957L317.79 316.957L317.789 325.064Z" fill="#2F2E41"/>
<path d="M352.852 319L346.596 318.999L343.62 294.869L352.853 294.87L352.852 319Z" fill="#FFB7B7"/>
<path d="M354.448 325.064L334.276 325.063V324.808C334.276 322.726 335.103 320.729 336.575 319.257C338.048 317.784 340.045 316.957 342.127 316.957L354.448 316.957L354.448 325.064Z" fill="#2F2E41"/>
<path d="M311.082 180.503L301.867 244.335L304.163 311.587L318.001 312.689L322.329 252.376L333.344 218.746L339.82 266.686L340.086 311.587L354.375 312.689L359.359 218.29L355.693 177.236L311.082 180.503Z" fill="#2F2E41"/>
<path d="M337.736 95.0413C345.788 95.0413 352.315 88.5143 352.315 80.4628C352.315 72.4113 345.788 65.8843 337.736 65.8843C329.685 65.8843 323.158 72.4113 323.158 80.4628C323.158 88.5143 329.685 95.0413 337.736 95.0413Z" fill="#FFB7B7"/>
<path d="M328.751 102.971L312.656 184.052C312.656 184.052 339.753 191.829 351.624 184.649C363.494 177.47 358.175 155.306 358.175 155.306L356.001 117.593L351.984 108.056L348.575 100.184L328.751 102.971Z" fill="#CBCBCB"/>
<path d="M324.04 160.524L329.599 101.397L325.153 104.643L309.607 109.692L308.543 151.32L297.668 206.061C297.668 206.061 305.441 221.229 315.075 196.136L324.04 160.524Z" fill="#2F2E41"/>
<path d="M317.089 115.918L309.607 109.692L292.792 146.219L274.028 142.109L273.141 153.191L300.328 163.95L318.854 138.158L317.089 115.918Z" fill="#2F2E41"/>
<path d="M346.194 147.582L348.29 99.4605L356.001 105.432L369.772 109.27L367.753 147.582L370.659 207.029L356.221 211.602L352.168 174.091L346.194 147.582Z" fill="#2F2E41"/>
<path d="M347.121 186.319C347.283 185.416 347.64 184.56 348.168 183.81C348.697 183.061 349.383 182.436 350.179 181.98C350.975 181.524 351.861 181.248 352.775 181.172C353.689 181.096 354.609 181.221 355.469 181.539L369.618 164.31L373.045 175.377L359.083 190.041C358.454 191.451 357.329 192.581 355.922 193.218C354.515 193.854 352.923 193.952 351.449 193.493C349.974 193.034 348.72 192.051 347.922 190.729C347.124 189.406 346.839 187.838 347.121 186.319Z" fill="#FFB7B7"/>
<path d="M360.552 114.612L369.772 109.27L392.972 155.085L370.353 186.493L357.452 176.178L373.117 155.75L358.84 133.807L360.552 114.612Z" fill="#2F2E41"/>
<path d="M351.447 68.8081L352.154 67.3856L348.598 65.6187C348.598 65.6187 344.675 59.2354 337.576 61.0293C330.477 62.8231 327.283 63.8967 327.283 63.8967L323.736 65.6815L325.516 67.4529L322.322 68.5265L324.456 69.5866L321.973 71.0136L323.31 78.3287C323.31 78.3287 325.53 72.7805 329.797 74.9007C334.064 77.021 341.87 73.8047 341.87 73.8047L348.652 86.9291C348.652 86.9291 350.051 82.3283 352.545 83.5551C352.545 83.5551 358.918 73.4064 351.447 68.8081Z" fill="#2F2E41"/>
<path d="M262.894 90.1964H262.8L209.337 113.025L136.188 144.261C135.902 144.381 135.595 144.444 135.285 144.445C134.975 144.447 134.668 144.387 134.381 144.27L58.9125 112.96L4.13558 90.2336L4.05191 90.1964H3.95866C3.09437 90.1973 2.26575 90.5411 1.6546 91.1522C1.04346 91.7634 0.699693 92.592 0.69873 93.4563V235.032C0.699695 235.897 1.04346 236.725 1.6546 237.336C2.26575 237.947 3.09437 238.291 3.95866 238.292H262.894C263.758 238.291 264.586 237.947 265.198 237.336C265.809 236.725 266.153 235.897 266.154 235.032V93.4563C266.153 92.592 265.809 91.7634 265.198 91.1522C264.586 90.5411 263.758 90.1973 262.894 90.1964Z" fill="white"/>
<path d="M263.126 91.1278C263.031 91.1278 262.938 91.0987 262.86 91.0443L134.064 1.34686C133.672 1.07515 133.206 0.929951 132.729 0.930764C132.252 0.931576 131.787 1.07836 131.396 1.3514L3.52746 91.0434C3.42631 91.1142 3.30122 91.1419 3.17966 91.1204C3.0581 91.099 2.95001 91.0302 2.87913 90.9292C2.80825 90.8281 2.78038 90.7031 2.80164 90.5815C2.8229 90.4599 2.89154 90.3517 2.9925 90.2807L130.861 0.588739C131.409 0.206554 132.06 0.00110167 132.728 4.41811e-06C133.395 -0.00109284 134.047 0.202216 134.596 0.582599L263.392 90.2798C263.474 90.3365 263.535 90.4177 263.567 90.5116C263.599 90.6054 263.6 90.707 263.571 90.8016C263.541 90.8962 263.482 90.9789 263.402 91.0375C263.322 91.0962 263.225 91.1278 263.126 91.1278Z" fill="#3F3D56"/>
<path d="M10.834 94.3075L132.855 3.87433L255.803 100.742L139.142 169.9L75.806 155.463L10.834 94.3075Z" fill="#E6E6E6"/>
<path d="M81.1527 212.616H20.871C20.5008 212.617 20.134 212.545 19.7917 212.404C19.4494 212.263 19.1381 212.057 18.8758 211.795C18.6135 211.534 18.4052 211.224 18.263 210.882C18.1207 210.54 18.0472 210.174 18.0466 209.804C18.0461 209.434 18.1185 209.067 18.2598 208.725C18.4011 208.383 18.6084 208.072 18.8699 207.81C19.1315 207.548 19.4421 207.34 19.784 207.198C20.1259 207.056 20.4925 206.983 20.8626 206.983H81.1527C81.5228 206.982 81.8896 207.054 82.2319 207.195C82.5743 207.336 82.8855 207.543 83.1478 207.804C83.4101 208.065 83.6184 208.375 83.7606 208.717C83.9029 209.059 83.9764 209.425 83.977 209.795C83.9775 210.166 83.9051 210.532 83.7638 210.874C83.6225 211.217 83.4152 211.528 83.1537 211.789C82.8921 212.051 82.5815 212.259 82.2396 212.401C81.8977 212.543 81.5311 212.616 81.161 212.616H81.1527Z" fill="#A79351"/>
<path d="M42.4987 200.507H20.871C20.5008 200.508 20.134 200.437 19.7917 200.296C19.4494 200.155 19.1381 199.948 18.8758 199.687C18.6135 199.426 18.4053 199.115 18.263 198.774C18.1207 198.432 18.0472 198.065 18.0466 197.695C18.0461 197.325 18.1185 196.958 18.2598 196.616C18.4011 196.274 18.6084 195.963 18.8699 195.701C19.1315 195.439 19.4421 195.231 19.784 195.09C20.126 194.948 20.4925 194.875 20.8626 194.875H42.4987C43.245 194.875 43.9608 195.171 44.4889 195.698C45.017 196.225 45.3143 196.941 45.3154 197.687C45.3165 198.433 45.0214 199.149 44.4948 199.678C43.9682 200.207 43.2533 200.505 42.507 200.507H42.4987Z" fill="#A79351"/>
<path d="M134.572 144.677C134.113 144.678 133.66 144.589 133.235 144.416L57.981 113.19V15.4497C57.982 14.5855 58.3257 13.7569 58.9369 13.1457C59.548 12.5346 60.3766 12.1908 61.2409 12.1898H205.611C206.475 12.1908 207.304 12.5346 207.915 13.1457C208.526 13.7569 208.87 14.5855 208.871 15.4497V113.258L208.73 113.319L135.948 144.4C135.512 144.583 135.044 144.678 134.572 144.677Z" fill="#A79351"/>
<path d="M262.195 90.1964H262.102L208.638 113.025L135.489 144.261C135.203 144.381 134.897 144.444 134.587 144.445C134.276 144.447 133.969 144.387 133.682 144.27L58.2138 112.96L3.4369 90.2336L3.35324 90.1964H3.25993C2.39564 90.1973 1.56702 90.5411 0.955873 91.1522C0.344726 91.7634 0.000961213 92.592 0 93.4563V235.032C0.000961216 235.897 0.344726 236.725 0.955873 237.336C1.56702 237.947 2.39564 238.291 3.25993 238.292H262.195C263.059 238.291 263.888 237.947 264.499 237.336C265.11 236.725 265.454 235.897 265.455 235.032V93.4563C265.454 92.592 265.11 91.7634 264.499 91.1522C263.888 90.5411 263.059 90.1973 262.195 90.1964ZM264.523 235.032C264.523 235.65 264.278 236.242 263.841 236.678C263.405 237.115 262.812 237.361 262.195 237.361H3.25993C2.64244 237.361 2.0503 237.115 1.61366 236.678C1.17703 236.242 0.931612 235.65 0.931366 235.032V93.4563C0.93221 92.8542 1.16578 92.2756 1.58326 91.8417C2.00073 91.4077 2.56979 91.1519 3.17147 91.1278L58.2138 113.966L133.324 145.132C134.137 145.462 135.048 145.457 135.857 145.118L208.638 114.036L262.288 91.1278C262.889 91.1537 263.456 91.4102 263.873 91.8439C264.289 92.2776 264.522 92.8551 264.523 93.4563L264.523 235.032Z" fill="#3F3D56"/>
<path d="M122.856 48.7255H71.6276C70.6406 48.7237 69.6947 48.3305 68.9974 47.6319C68.3001 46.9334 67.9084 45.9868 67.9084 44.9998C67.9084 44.0128 68.3001 43.0661 68.9974 42.3676C69.6947 41.6691 70.6406 41.2758 71.6276 41.2741H122.856C123.843 41.2758 124.789 41.6691 125.486 42.3676C126.183 43.0661 126.575 44.0128 126.575 44.9998C126.575 45.9868 126.183 46.9334 125.486 47.6319C124.789 48.3305 123.843 48.7237 122.856 48.7255Z" fill="white"/>
<path d="M96.3104 32.8913H71.6278C70.6397 32.8913 69.692 32.4988 68.9933 31.8001C68.2946 31.1014 67.9021 30.1537 67.9021 29.1656C67.9021 28.1775 68.2946 27.2299 68.9933 26.5312C69.692 25.8325 70.6397 25.4399 71.6278 25.4399H96.3104C97.2985 25.4399 98.2462 25.8325 98.9449 26.5312C99.6436 27.2299 100.036 28.1775 100.036 29.1656C100.036 30.1537 99.6436 31.1014 98.9449 31.8001C98.2462 32.4988 97.2985 32.8913 96.3104 32.8913Z" fill="white"/>
<path d="M171.741 85.9823H93.5016C92.5134 85.9823 91.5658 85.5898 90.8671 84.8911C90.1684 84.1924 89.7759 83.2447 89.7759 82.2566C89.7759 81.2685 90.1684 80.3209 90.8671 79.6222C91.5658 78.9235 92.5134 78.5309 93.5016 78.5309H171.741C172.729 78.5309 173.677 78.9235 174.375 79.6222C175.074 80.3209 175.467 81.2685 175.467 82.2566C175.467 83.2447 175.074 84.1924 174.375 84.8911C173.677 85.5898 172.729 85.9823 171.741 85.9823Z" fill="white"/>
<path d="M171.741 103.214H93.5015C93.0117 103.214 92.5265 103.119 92.0737 102.932C91.621 102.745 91.2095 102.471 90.8628 102.125C90.5162 101.779 90.2412 101.368 90.0535 100.915C89.8659 100.463 89.7693 99.9777 89.7693 99.4879C89.7693 98.9981 89.8659 98.5131 90.0535 98.0606C90.2412 97.6082 90.5162 97.1972 90.8628 96.8511C91.2095 96.5051 91.621 96.2308 92.0737 96.0439C92.5265 95.8571 93.0117 95.7614 93.5015 95.7622H171.741C172.231 95.7614 172.716 95.8571 173.169 96.0439C173.621 96.2308 174.033 96.5051 174.38 96.8511C174.726 97.1972 175.001 97.6082 175.189 98.0606C175.376 98.5131 175.473 98.9981 175.473 99.4879C175.473 99.9777 175.376 100.463 175.189 100.915C175.001 101.368 174.726 101.779 174.38 102.125C174.033 102.471 173.621 102.745 173.169 102.932C172.716 103.119 172.231 103.214 171.741 103.214Z" fill="white"/>
<path d="M399.432 325.653H249.961C249.81 325.653 249.666 325.593 249.559 325.486C249.453 325.38 249.393 325.235 249.393 325.084C249.393 324.934 249.453 324.789 249.559 324.683C249.666 324.576 249.81 324.516 249.961 324.516H399.432C399.583 324.516 399.727 324.576 399.834 324.683C399.94 324.789 400 324.934 400 325.084C400 325.235 399.94 325.38 399.834 325.486C399.727 325.593 399.583 325.653 399.432 325.653Z" fill="#CBCBCB"/>
<path d="M138.569 325.653H83.4406C83.2899 325.653 83.1454 325.593 83.0388 325.486C82.9322 325.38 82.8723 325.235 82.8723 325.084C82.8723 324.934 82.9322 324.789 83.0388 324.683C83.1454 324.576 83.2899 324.516 83.4406 324.516H138.569C138.719 324.516 138.864 324.576 138.97 324.683C139.077 324.789 139.137 324.934 139.137 325.084C139.137 325.235 139.077 325.38 138.97 325.486C138.864 325.593 138.719 325.653 138.569 325.653Z" fill="#CBCBCB"/>
<path d="M103.711 308.081C105.816 308.033 107.873 307.443 109.684 306.369C111.495 305.295 112.999 303.772 114.051 301.948C116.701 297.228 115.894 291.403 115.007 286.063L112.387 270.265L107.852 276.799C104.59 281.497 101.266 286.331 99.8736 291.879C98.4812 297.427 99.4147 303.93 103.662 307.761" fill="#E6E6E6"/>
<path d="M110.95 325.672C108.624 321.387 106.259 317.052 104.97 312.321C103.825 308.119 103.567 303.691 104.86 299.492C105.547 297.266 106.618 295.177 108.023 293.319C108.39 292.835 109.12 293.43 108.755 293.912C106.326 297.133 104.982 301.042 104.918 305.075C104.857 309.557 106.216 313.904 108.048 317.948C109.154 320.395 110.433 322.756 111.714 325.116C111.784 325.218 111.812 325.343 111.793 325.465C111.773 325.588 111.708 325.698 111.61 325.774C111.509 325.847 111.383 325.877 111.26 325.858C111.137 325.838 111.026 325.771 110.952 325.671L110.95 325.672Z" fill="#F2F2F2"/>
</g>
<defs>
<clipPath id="clip0_38_8">
<rect width="400" height="325.863" fill="white"/>
</clipPath>
</defs>
</svg>
