<svg width="400" height="349" viewBox="0 0 400 349" fill="none" xmlns="http://www.w3.org/2000/svg">
<g clip-path="url(#clip0_38_62)">
<path d="M117.552 344.515C123.973 338.999 127.874 330.284 126.851 321.8C125.828 313.316 119.493 305.516 111.275 303.715C103.057 301.913 93.6894 306.9 91.1934 315.062C89.8197 299.326 88.2368 282.931 80.0083 269.53C72.5576 257.396 59.6528 248.713 45.667 247.16C31.6812 245.607 16.9559 251.473 8.23343 262.697C-0.489028 273.921 -2.62468 290.238 3.4843 303.124C7.98457 312.616 16.2757 319.681 24.9627 325.428C53.0334 343.843 86.7007 351.332 119.77 346.516" fill="#F2F2F2"/>
<path d="M22.0637 251.798C33.6038 261.355 44.1905 272.044 53.6709 283.71C68.5077 301.905 80.5137 322.304 89.2708 344.198C89.9119 345.795 87.3611 346.49 86.7271 344.911C81.1583 331.069 74.2685 317.815 66.1567 305.339C53.5072 285.85 38.0097 268.435 20.1984 253.695C18.8815 252.605 20.7577 250.717 22.0637 251.798Z" fill="white"/>
<path d="M121.987 344.515C115.566 338.999 111.666 330.284 112.689 321.8C113.712 313.316 120.047 305.516 128.265 303.715C136.483 301.913 145.85 306.9 148.346 315.062C149.72 299.326 151.303 282.931 159.531 269.53C166.982 257.396 179.887 248.713 193.873 247.16C207.859 245.607 222.584 251.473 231.306 262.697C240.029 273.921 242.164 290.238 236.055 303.124C231.555 312.616 223.264 319.681 214.577 325.428C186.506 343.843 152.839 351.332 119.77 346.516" fill="#F2F2F2"/>
<path d="M217.476 251.798C205.936 261.355 195.349 272.044 185.869 283.71C171.032 301.905 159.026 322.304 150.269 344.198C149.628 345.795 152.179 346.49 152.812 344.911C167.141 309.329 190.014 277.968 219.341 253.695C220.658 252.605 218.782 250.717 217.476 251.798Z" fill="white"/>
<path d="M141.042 156.614C152.921 156.614 162.551 146.822 162.551 134.744C162.551 122.666 152.921 112.875 141.042 112.875C129.163 112.875 119.533 122.666 119.533 134.744C119.533 146.822 129.163 156.614 141.042 156.614Z" fill="#F2F2F2"/>
<path d="M74.7236 59.3564H222.916V67.6H93.6417C86.0408 67.6 78.5144 69.1222 71.4922 72.0796C64.4699 75.037 58.0893 79.3718 52.7147 84.8365C47.3401 90.3011 43.0768 96.7886 40.1681 103.928C37.2593 111.068 35.7623 118.721 35.7623 126.449V220.106H19.5468C18.83 220.106 18.1427 219.816 17.6358 219.301C17.129 218.786 16.8443 218.087 16.8442 217.358V118.205C16.8442 110.477 18.3413 102.825 21.25 95.6849C24.1588 88.545 28.4221 82.0575 33.7967 76.5929C39.1713 71.1282 45.5519 66.7934 52.5741 63.836C59.5964 60.8786 67.1228 59.3564 74.7236 59.3564Z" fill="#F2F2F2"/>
<path d="M103.228 344.974V219.753H139.308V344.974C139.307 345.815 138.977 346.622 138.392 347.217C137.807 347.812 137.013 348.147 136.185 348.148H106.35C105.522 348.147 104.729 347.812 104.143 347.217C103.558 346.622 103.229 345.815 103.228 344.974Z" fill="#3F3D56"/>
<path d="M9.21191 217.284V115.461C9.22991 99.2511 15.571 83.7107 26.8441 72.2487C38.1171 60.7868 53.4015 54.3394 69.344 54.321H222.222V220.811H12.6811C11.7614 220.81 10.8796 220.438 10.2292 219.777C9.57882 219.116 9.21297 218.219 9.21191 217.284ZM220.834 55.732H69.344C53.7694 55.7499 38.8378 62.0485 27.8249 73.246C16.812 84.4434 10.6172 99.6252 10.5996 115.461V217.284C10.6002 217.845 10.8197 218.383 11.2099 218.78C11.6002 219.177 12.1293 219.4 12.6811 219.4H220.834V55.732Z" fill="#3F3D56"/>
<path d="M141.042 146.032C137.731 146.028 134.557 144.689 132.215 142.308C129.874 139.928 128.557 136.7 128.553 133.333V42.328C128.553 41.7669 128.333 41.229 127.943 40.8322C127.553 40.4354 127.023 40.2123 126.472 40.2116H77.9026C76.9828 40.2106 76.101 39.8386 75.4507 39.1773C74.8003 38.516 74.4344 37.6195 74.4333 36.6843V3.52734C74.4344 2.59216 74.8003 1.69559 75.4507 1.03433C76.101 0.373056 76.9828 0.00108292 77.9026 0H150.062C150.982 0.00106988 151.864 0.373042 152.514 1.03431C153.165 1.69559 153.53 2.59216 153.531 3.52734V133.333C153.528 136.7 152.211 139.928 149.869 142.308C147.528 144.689 144.354 146.028 141.042 146.032Z" fill="#A79351"/>
<path d="M227.773 52.91C238.24 52.8877 248.287 57.094 255.704 64.6036C263.121 72.1132 267.3 82.3109 267.322 92.9533V208.868H345.032C348.154 208.862 351.15 210.116 353.362 212.356C355.574 214.596 356.821 217.637 356.827 220.811H188.224V92.9533C188.246 82.3109 192.425 72.1132 199.842 64.6036C207.258 57.094 217.306 52.8877 227.773 52.91Z" fill="#3F3D56"/>
<path d="M218.282 118.919L226.471 153.315L386.667 113.885L378.477 79.4892C378.378 79.0686 378.177 78.6803 377.891 78.3602C377.605 78.0402 377.244 77.7988 376.842 77.6584C376.545 77.5522 376.231 77.5042 375.916 77.5168L283.316 28.7676C282.774 28.4859 282.15 28.4107 281.557 28.5555C280.965 28.7003 280.443 29.0555 280.086 29.5572L235.458 92.8333L218.633 116.694C218.603 116.736 218.581 116.784 218.571 116.835C218.56 116.886 218.56 116.938 218.572 116.989C218.229 117.569 218.125 118.262 218.282 118.919Z" fill="white"/>
<path d="M218.572 116.989C218.579 117.034 218.596 117.077 218.62 117.115C218.644 117.153 218.676 117.186 218.712 117.212C218.756 117.242 218.805 117.263 218.857 117.274C218.908 117.284 218.962 117.284 219.013 117.272C219.097 117.25 219.17 117.198 219.221 117.126L219.278 117.045L220.154 115.799L236.063 93.2495L280.678 29.988C280.933 29.6295 281.305 29.3757 281.728 29.2726C282.151 29.1695 282.596 29.224 282.983 29.4262L374.865 77.7978L375.69 78.2329C375.723 78.2471 375.757 78.2593 375.792 78.2693C375.854 78.2578 375.917 78.2517 375.981 78.251C376.067 78.2216 376.139 78.1599 376.182 78.0783C376.204 78.0354 376.218 77.9883 376.222 77.94C376.227 77.8916 376.222 77.8428 376.208 77.7963C376.194 77.7499 376.171 77.7067 376.14 77.6693C376.11 77.6319 376.072 77.601 376.03 77.5784L375.916 77.5168L283.316 28.7676C282.774 28.4859 282.15 28.4107 281.557 28.5555C280.965 28.7003 280.443 29.0555 280.085 29.5572L235.458 92.8333L218.633 116.694C218.603 116.736 218.581 116.784 218.571 116.835C218.56 116.886 218.56 116.938 218.572 116.989Z" fill="#3F3D56"/>
<path d="M266.683 120.497L270.249 120.899L296.714 123.88L314.258 125.854L315.295 125.972L337.187 108.585L338.026 107.919L343.197 103.814L361.593 89.2059L361.703 88.1799L368.246 28.1346C368.336 27.3078 368.099 26.4788 367.588 25.8293C367.077 25.1797 366.333 24.7628 365.52 24.6697L278.196 14.8343C277.383 14.744 276.568 14.985 275.929 15.5045C275.29 16.0241 274.88 16.7798 274.788 17.6062L270.174 59.9607L267.614 83.4428L265.325 104.451L264.263 114.207L263.953 117.032C263.865 117.86 264.103 118.689 264.614 119.338C265.126 119.987 265.87 120.404 266.683 120.497Z" fill="#E6E6E6"/>
<path d="M290.68 67.8644L328.506 72.1241L341.92 73.6342C342.513 73.7009 343.112 73.6484 343.684 73.4796C344.257 73.3107 344.791 73.0289 345.256 72.6503C345.721 72.2717 346.108 71.8036 346.395 71.2728C346.683 70.7419 346.864 70.1588 346.93 69.5566C346.995 68.9544 346.944 68.345 346.778 67.7632C346.612 67.1813 346.335 66.6384 345.962 66.1654C345.59 65.6925 345.129 65.2987 344.607 65.0067C344.085 64.7146 343.512 64.5299 342.919 64.4633L326.235 62.5844L291.682 58.6889C290.485 58.5546 289.285 58.9087 288.346 59.6736C287.406 60.4384 286.804 61.5514 286.671 62.7677C286.538 63.984 286.886 65.2042 287.638 66.1599C288.389 67.1157 289.484 67.7288 290.68 67.8644Z" fill="white"/>
<path d="M288.526 84.8774C288.624 84.8952 288.721 84.9129 288.821 84.9226L332.731 89.8686L340.062 90.696C341.259 90.8306 342.459 90.4764 343.399 89.7113C344.338 88.9461 344.941 87.8328 345.073 86.6162C345.205 85.3996 344.857 84.1793 344.104 83.2238C343.352 82.2684 342.257 81.656 341.06 81.5215L330.459 80.329L295.677 76.4102L289.823 75.7507C288.653 75.618 287.477 75.9533 286.545 76.6857C285.614 77.4182 284.998 78.4904 284.83 79.6756C284.661 80.8609 284.953 82.0664 285.643 83.0371C286.332 84.0078 287.367 84.6678 288.526 84.8774Z" fill="white"/>
<path d="M283.557 99.9631C283.916 100.57 284.409 101.085 284.996 101.468C285.584 101.85 286.25 102.09 286.943 102.168L304.94 104.195L336.994 107.805L337.001 107.803L338.026 107.92L343.197 103.814C343.229 103.502 343.229 103.187 343.197 102.875C343.088 101.828 342.631 100.85 341.901 100.103C341.171 99.3556 340.212 98.8843 339.182 98.7668L334.73 98.2638L317.067 96.2764L304.357 94.8432L287.941 92.9933C287.1 92.8987 286.249 93.0451 285.485 93.4162C284.722 93.7873 284.075 94.3682 283.619 95.0932C283.163 95.8182 282.915 96.6585 282.904 97.519C282.893 98.3796 283.119 99.2262 283.557 99.9631Z" fill="white"/>
<path d="M308.835 47.0684L318.247 48.1283L322.404 48.5977L328.683 49.3043C329.88 49.4388 331.08 49.0846 332.02 48.3195C332.959 47.5543 333.562 46.441 333.694 45.2244C333.826 44.0077 333.478 42.7875 332.726 41.832C331.973 40.8766 330.878 40.2642 329.681 40.1297L309.838 37.8965C308.642 37.7614 307.442 38.1149 306.502 38.8793C305.562 39.6437 304.959 40.7565 304.826 41.9728C304.693 43.189 305.041 44.4092 305.793 45.3648C306.545 46.3204 307.639 46.9333 308.835 47.0684Z" fill="white"/>
<path d="M231.878 72.615L243.352 120.808L262.503 124.511L280.218 127.94L299.225 131.617L305.298 132.792C305.654 132.86 306.019 132.851 306.371 132.764C306.723 132.678 307.052 132.516 307.338 132.29L312.21 128.421L315.295 125.972L337.187 108.585L323.267 50.1208C323.13 49.5392 322.83 49.0103 322.404 48.5977C322.03 48.2326 321.572 47.969 321.072 47.8313C320.572 47.6936 320.046 47.6861 319.542 47.8095L234.151 68.8273C233.356 69.0236 232.67 69.5327 232.244 70.2429C231.817 70.9531 231.686 71.8063 231.878 72.615Z" fill="#A79351"/>
<path d="M258.189 110.954C258.473 112.143 259.209 113.169 260.236 113.806C261.263 114.443 262.497 114.64 263.667 114.353L313.773 102.021C314.941 101.731 315.95 100.982 316.576 99.9381C317.203 98.8939 317.397 97.6397 317.115 96.4504C317.103 96.3915 317.086 96.3334 317.067 96.2764C316.747 95.1298 316.003 94.1536 314.99 93.5525C313.978 92.9513 312.776 92.7717 311.637 93.0515L261.532 105.384C260.362 105.673 259.354 106.422 258.727 107.466C258.1 108.511 257.907 109.765 258.189 110.954Z" fill="white"/>
<path d="M262.503 124.511L280.218 127.94L317.744 118.703C318.914 118.415 319.923 117.667 320.55 116.622C321.177 115.578 321.37 114.323 321.087 113.133C320.804 111.944 320.068 110.917 319.04 110.28C318.013 109.643 316.779 109.446 315.609 109.734L265.503 122.067C264.456 122.323 263.534 122.951 262.903 123.839C262.751 124.051 262.617 124.276 262.503 124.511Z" fill="white"/>
<path d="M299.225 131.617L305.298 132.792C305.654 132.86 306.02 132.851 306.371 132.764C306.723 132.678 307.052 132.516 307.338 132.29L312.21 128.421L299.225 131.617Z" fill="white"/>
<path d="M268.285 85.1123C268.569 86.3012 269.305 87.3268 270.332 87.9641C271.359 88.6013 272.593 88.7981 273.763 88.5113L293.17 83.7345C294.339 83.4451 295.347 82.6961 295.974 81.652C296.6 80.6078 296.794 79.3536 296.513 78.1643C296.362 77.5253 296.077 76.927 295.677 76.4104C295.14 75.7121 294.417 75.1856 293.594 74.8939C292.77 74.6022 291.882 74.5576 291.035 74.7654L271.627 79.5421C270.458 79.8302 269.449 80.5788 268.822 81.6234C268.195 82.668 268.001 83.923 268.285 85.1123Z" fill="white"/>
<path d="M280.217 127.94L299.227 131.618L305.298 132.793C305.653 132.861 306.019 132.851 306.37 132.764C306.722 132.678 307.051 132.517 307.337 132.291L312.212 128.421L310.501 128.842L306.889 131.707C306.685 131.868 306.45 131.983 306.199 132.045C305.948 132.107 305.687 132.114 305.433 132.066L300.938 131.196L281.928 127.518L280.217 127.94ZM336.999 107.806L337.184 108.583L338.027 107.917L336.999 107.806ZM280.217 127.94L299.227 131.618L305.298 132.793C305.653 132.861 306.019 132.851 306.37 132.764C306.722 132.678 307.051 132.517 307.337 132.291L312.212 128.421L310.501 128.842L306.889 131.707C306.685 131.868 306.45 131.983 306.199 132.045C305.948 132.107 305.687 132.114 305.433 132.066L300.938 131.196L281.928 127.518L280.217 127.94ZM280.217 127.94L299.227 131.618L305.298 132.793C305.653 132.861 306.019 132.851 306.37 132.764C306.722 132.678 307.051 132.517 307.337 132.291L312.212 128.421L310.501 128.842L306.889 131.707C306.685 131.868 306.45 131.983 306.199 132.045C305.948 132.107 305.687 132.114 305.433 132.066L300.938 131.196L281.928 127.518L280.217 127.94ZM218.282 118.919L239.733 209.014C239.892 209.68 240.305 210.254 240.88 210.611C241.455 210.968 242.146 211.078 242.801 210.918L398.056 172.704C398.711 172.542 399.276 172.123 399.627 171.538C399.978 170.953 400.086 170.251 399.928 169.584L378.477 79.4891C378.378 79.0686 378.177 78.6802 377.891 78.3602C377.605 78.0401 377.244 77.7987 376.842 77.6584C376.545 77.5522 376.231 77.5041 375.916 77.5167C375.549 77.5275 375.19 77.6237 374.865 77.7977C374.716 77.87 374.574 77.9593 374.444 78.0638L361.702 88.18L343.197 102.877L336.998 107.801L336.999 107.806L336.994 107.807L314.26 125.852L310.501 128.842L306.889 131.707C306.685 131.868 306.45 131.983 306.199 132.045C305.948 132.107 305.687 132.114 305.433 132.066L300.938 131.196L281.928 127.518L262.901 123.839L221.228 115.776C220.873 115.704 220.506 115.712 220.154 115.799C219.68 115.917 219.25 116.171 218.914 116.53C218.785 116.671 218.67 116.825 218.572 116.989C218.229 117.569 218.125 118.262 218.282 118.919ZM280.217 127.94L299.227 131.618L305.298 132.793C305.653 132.861 306.019 132.851 306.37 132.764C306.722 132.678 307.051 132.517 307.337 132.291L312.212 128.421L310.501 128.842L306.889 131.707C306.685 131.868 306.45 131.983 306.199 132.045C305.948 132.107 305.687 132.114 305.433 132.066L300.938 131.196L281.928 127.518L280.217 127.94ZM280.217 127.94L299.227 131.618L305.298 132.793C305.653 132.861 306.019 132.851 306.37 132.764C306.722 132.678 307.051 132.517 307.337 132.291L312.212 128.421L310.501 128.842L306.889 131.707C306.685 131.868 306.45 131.983 306.199 132.045C305.948 132.107 305.687 132.114 305.433 132.066L300.938 131.196L281.928 127.518L280.217 127.94ZM280.217 127.94L299.227 131.618L305.298 132.793C305.653 132.861 306.019 132.851 306.37 132.764C306.722 132.678 307.051 132.517 307.337 132.291L312.212 128.421L310.501 128.842L306.889 131.707C306.685 131.868 306.45 131.983 306.199 132.045C305.948 132.107 305.687 132.114 305.433 132.066L300.938 131.196L281.928 127.518L280.217 127.94Z" fill="white"/>
<path d="M280.217 127.94L299.227 131.618L305.298 132.793C305.653 132.861 306.019 132.851 306.37 132.764C306.722 132.678 307.051 132.517 307.337 132.291L312.212 128.421L310.501 128.843L306.889 131.707C306.685 131.868 306.45 131.983 306.199 132.045C305.948 132.107 305.687 132.114 305.433 132.066L300.938 131.196L281.928 127.518L280.217 127.94ZM336.999 107.806L337.184 108.584L338.027 107.917L336.999 107.806ZM280.217 127.94L299.227 131.618L305.298 132.793C305.653 132.861 306.019 132.851 306.37 132.764C306.722 132.678 307.051 132.517 307.337 132.291L312.212 128.421L310.501 128.843L306.889 131.707C306.685 131.868 306.45 131.983 306.199 132.045C305.948 132.107 305.687 132.114 305.433 132.066L300.938 131.196L281.928 127.518L280.217 127.94ZM280.217 127.94L299.227 131.618L305.298 132.793C305.653 132.861 306.019 132.851 306.37 132.764C306.722 132.678 307.051 132.517 307.337 132.291L312.212 128.421L310.501 128.843L306.889 131.707C306.685 131.868 306.45 131.983 306.199 132.045C305.948 132.107 305.687 132.114 305.433 132.066L300.938 131.196L281.928 127.518L280.217 127.94ZM219.278 117.045L219.373 117.117C219.388 117.091 219.416 117.067 219.437 117.039C219.647 116.817 219.908 116.651 220.197 116.557C220.486 116.462 220.793 116.442 221.092 116.498L262.504 124.508L280.217 127.94L299.227 131.618L305.298 132.793C305.653 132.861 306.019 132.851 306.37 132.764C306.722 132.678 307.051 132.517 307.337 132.291L312.212 128.421L310.501 128.843L306.889 131.707C306.685 131.868 306.45 131.983 306.199 132.045C305.948 132.107 305.687 132.114 305.433 132.066L300.938 131.196L281.928 127.518L262.901 123.839L221.228 115.776C220.873 115.704 220.506 115.712 220.154 115.799L219.278 117.045ZM218.282 118.919L239.733 209.014C239.892 209.68 240.305 210.254 240.88 210.611C241.455 210.968 242.146 211.078 242.801 210.918L398.056 172.704C398.711 172.542 399.276 172.123 399.627 171.538C399.978 170.953 400.086 170.251 399.928 169.585L378.477 79.4892C378.378 79.0687 378.177 78.6804 377.891 78.3603C377.605 78.0403 377.244 77.7989 376.842 77.6585C376.545 77.5523 376.231 77.5042 375.916 77.5169C375.549 77.5276 375.19 77.6238 374.865 77.7979C374.716 77.8701 374.574 77.9594 374.444 78.0639L361.702 88.1801L343.197 102.877L336.998 107.801L336.999 107.806L336.994 107.808L314.26 125.852L310.501 128.843L306.889 131.707C306.685 131.868 306.45 131.983 306.199 132.045C305.948 132.107 305.687 132.114 305.433 132.066L300.938 131.196L281.928 127.518L262.901 123.839L221.228 115.776C220.873 115.704 220.506 115.712 220.154 115.799C219.68 115.917 219.25 116.171 218.914 116.53C218.785 116.671 218.67 116.825 218.572 116.989C218.229 117.569 218.125 118.262 218.282 118.919ZM218.99 118.745C218.926 118.479 218.922 118.203 218.978 117.935C219.033 117.668 219.146 117.416 219.31 117.199C219.325 117.168 219.346 117.139 219.373 117.117C219.388 117.091 219.416 117.067 219.437 117.039C219.647 116.817 219.908 116.651 220.197 116.557C220.486 116.462 220.793 116.442 221.092 116.498L262.504 124.508L280.217 127.94L299.227 131.618L305.298 132.793C305.653 132.861 306.019 132.851 306.37 132.764C306.722 132.678 307.051 132.517 307.337 132.291L312.212 128.421L315.296 125.972L337.184 108.584L338.027 107.917L343.194 103.813L361.594 89.2032L374.895 78.6412C375.098 78.4809 375.331 78.3662 375.58 78.3047C375.65 78.2874 375.721 78.2756 375.792 78.2694C375.854 78.2579 375.917 78.2518 375.98 78.2511C376.193 78.249 376.404 78.2841 376.605 78.3547C376.892 78.4562 377.149 78.629 377.354 78.8573C377.558 79.0856 377.703 79.3623 377.775 79.6621L399.226 169.757C399.283 169.994 399.293 170.239 399.256 170.479C399.219 170.719 399.136 170.949 399.012 171.156C398.887 171.364 398.724 171.544 398.53 171.687C398.337 171.83 398.118 171.933 397.886 171.99L242.631 210.204C242.163 210.319 241.669 210.239 241.258 209.983C240.847 209.728 240.553 209.316 240.44 208.84L218.99 118.745ZM280.217 127.94L299.227 131.618L305.298 132.793C305.653 132.861 306.019 132.851 306.37 132.764C306.722 132.678 307.051 132.517 307.337 132.291L312.212 128.421L310.501 128.843L306.889 131.707C306.685 131.868 306.45 131.983 306.199 132.045C305.948 132.107 305.687 132.114 305.433 132.066L300.938 131.196L281.928 127.518L280.217 127.94ZM280.217 127.94L299.227 131.618L305.298 132.793C305.653 132.861 306.019 132.851 306.37 132.764C306.722 132.678 307.051 132.517 307.337 132.291L312.212 128.421L310.501 128.843L306.889 131.707C306.685 131.868 306.45 131.983 306.199 132.045C305.948 132.107 305.687 132.114 305.433 132.066L300.938 131.196L281.928 127.518L280.217 127.94ZM280.217 127.94L299.227 131.618L305.298 132.793C305.653 132.861 306.019 132.851 306.37 132.764C306.722 132.678 307.051 132.517 307.337 132.291L312.212 128.421L310.501 128.843L306.889 131.707C306.685 131.868 306.45 131.983 306.199 132.045C305.948 132.107 305.687 132.114 305.433 132.066L300.938 131.196L281.928 127.518L280.217 127.94Z" fill="#3F3D56"/>
<path d="M357.592 155.004C357.242 153.527 357.483 151.97 358.261 150.674C359.039 149.378 360.29 148.448 361.742 148.089L381.337 143.266C382.787 142.915 384.315 143.162 385.586 143.954C386.857 144.745 387.767 146.017 388.118 147.49C388.469 148.963 388.231 150.517 387.457 151.812C386.683 153.108 385.435 154.038 383.988 154.4L364.392 159.223C362.94 159.578 361.409 159.334 360.134 158.543C358.859 157.752 357.945 156.479 357.592 155.004Z" fill="#A79351"/>
<path d="M141.042 138.272C143.725 138.272 145.899 136.061 145.899 133.333C145.899 130.606 143.725 128.395 141.042 128.395C138.36 128.395 136.185 130.606 136.185 133.333C136.185 136.061 138.36 138.272 141.042 138.272Z" fill="white"/>
</g>
<defs>
<clipPath id="clip0_38_62">
<rect width="400" height="348.148" fill="white"/>
</clipPath>
</defs>
</svg>
