<svg width="170" height="34" viewBox="0 0 170 34" fill="none" xmlns="http://www.w3.org/2000/svg">
<g id="Group">
<path id="Vector" d="M13.6941 0.432575C8.52259 1.95104 3.90963 6.41439 1.42733 12.2582C0.45509 14.6049 0 16.4454 0 18.194C0 19.8505 0.35166 20.8628 1.22047 21.668C1.77899 22.1742 2.08927 22.2892 3.06151 22.2892C3.78552 22.2892 4.59227 22.1052 5.1301 21.8291C5.62656 21.576 5.99891 21.461 5.95754 21.553C5.91616 21.645 5.54382 22.4963 5.10941 23.4396C4.32335 25.1881 4.11649 26.8216 4.5509 27.5808C4.71638 27.8569 4.75775 27.8569 4.75775 27.4658C4.75775 26.5915 5.97822 24.682 8.27435 21.9441C10.9428 18.7692 12.6184 16.5145 13.1149 15.4561C13.8595 13.8226 13.2803 12.8564 11.5634 12.8564C10.6325 12.8564 10.6119 12.8564 10.3636 13.8226C9.99128 15.2261 8.87425 17.1817 7.40555 18.9992C5.44039 21.438 3.84757 22.2662 2.87534 21.392C2.10996 20.7017 2.1927 18.6081 3.0822 16.2384C4.6957 11.9821 8.5019 6.1153 11.3152 3.53852C14.6456 0.47859 18.4104 -0.326656 18.4104 1.99705C18.4104 2.29614 18.2243 2.91733 17.976 3.33146C17.3348 4.50481 14.7697 7.03558 13.5906 7.65677L12.515 8.20894L13.0942 8.46202C14.7904 9.17524 17.4382 8.393 19.0931 6.66747C20.2929 5.42509 20.8721 4.15971 20.8927 2.77929C20.8927 1.55992 20.1481 0.616631 18.9069 0.225512C17.6864 -0.142599 15.3903 -0.0505714 13.6941 0.432575Z" fill="#FAFAFA"/>
<path id="Vector_2" d="M88.5356 16.8827V26.6606H89.0528H89.5699V16.8827V7.10469H89.0528H88.5356V16.8827Z" fill="#FAFAFA"/>
<path id="Vector_3" d="M38.269 17.4578V26.6606H38.7862H39.3033V17.4578V8.25504H38.7862H38.269V17.4578Z" fill="#FAFAFA"/>
<path id="Vector_4" d="M32.0634 9.08314C31.5463 9.29021 29.9535 9.38223 26.3748 9.40524C20.7276 9.40524 18.0384 9.65832 16.2181 10.3255C14.9148 10.8087 13.653 11.936 13.653 12.6032C13.6737 12.9253 13.6944 12.9253 13.8805 12.5572C14.2529 11.867 15.3492 11.4069 16.6525 11.3838C18.3487 11.3838 18.4935 11.5219 18.0177 12.6032C17.542 13.6385 15.6388 16.3534 13.3427 19.2522C11.9568 21.0238 11.5844 21.3689 11.0673 21.3689C10.1571 21.3689 8.99868 21.783 8.44016 22.2892C8.17124 22.5422 8.06781 22.7263 8.21261 22.7493C8.33673 22.7493 8.5229 22.6343 8.58496 22.5192C8.75045 22.2201 10.2812 22.2201 10.4467 22.4962C10.5087 22.6113 10.0537 23.4855 9.4124 24.4058C8.79182 25.3261 7.7989 27.0746 7.19901 28.248C6.28883 30.0885 6.10265 30.6637 6.0406 31.8601C5.99922 32.6423 6.06128 33.4706 6.1854 33.7006C6.37157 34.0918 6.39226 34.0918 6.41294 33.7467C6.41294 33.0795 7.86095 30.2956 8.99868 28.7311C9.59857 27.9029 10.7777 26.4304 11.6051 25.4411L13.1359 23.6236L13.7771 23.9917C15.3286 24.8659 17.1075 24.889 18.5762 24.0377C19.3209 23.6006 20.7276 22.1281 21.0792 21.4149C21.2861 21.0008 21.224 21.0008 20.0449 21.5299C19.052 21.9671 18.4521 22.0821 16.9214 22.0821C15.8871 22.0821 14.9976 22.0131 14.9355 21.9671C14.8735 21.898 15.2872 21.2538 15.8457 20.5406C18.4108 17.2736 20.0656 14.3517 20.0656 13.0864C20.0656 12.7643 19.9208 12.2581 19.7347 11.982C19.4244 11.4989 19.4451 11.4759 20.0036 11.4759C20.3139 11.4759 21.6378 11.6829 22.941 11.936C26.1059 12.5572 30.1603 12.5572 31.3601 11.959C32.4358 11.4069 33.0977 10.4866 33.0977 9.49727C33.0977 8.64601 33.0977 8.64601 32.0634 9.08314Z" fill="#FAFAFA"/>
<path id="Vector_5" d="M68.8634 10.3717C68.8634 10.6708 68.7392 11.361 68.6151 11.9132C68.3876 12.8335 68.2842 12.9715 67.5395 13.1786C67.043 13.3396 66.6913 13.5927 66.65 13.8458C66.5879 14.1679 66.7327 14.2369 67.5188 14.2369H68.4703V19.0454C68.4703 21.6912 68.5324 24.1759 68.5944 24.5671C68.9047 26.2236 70.5803 27.1668 72.5868 26.7757C73.2281 26.6607 73.4349 26.5227 73.4349 26.1775C73.4349 25.7864 73.2695 25.7404 72.1731 25.7404C69.6701 25.7404 69.5046 25.3033 69.5046 18.9533V14.2369H71.2629C73.0005 14.2369 73.0212 14.2369 73.0212 13.6617C73.0212 13.0866 73.0005 13.0866 71.2629 13.0866H69.5046V11.4761C69.5046 10.1877 69.4426 9.86558 69.1943 9.86558C69.0082 9.86558 68.884 10.0956 68.8634 10.3717Z" fill="#FAFAFA"/>
<path id="Vector_6" d="M47.6809 12.8334C46.75 13.0865 45.7364 13.7307 45.4468 14.2369C45.1365 14.812 44.8883 14.835 44.8883 14.2599C44.8883 13.5006 44.6608 13.0865 44.247 13.0865C43.8747 13.0865 43.854 13.3626 43.854 19.8736V26.6606H44.3712H44.8883V22.2203C44.8883 16.1694 45.1986 15.0651 47.2051 14.1218C48.198 13.6847 50.1011 13.6847 50.9079 14.1218C51.2389 14.3289 51.7146 14.812 51.9215 15.2262C52.2938 15.8934 52.3352 16.4225 52.3352 21.3V26.6606H52.8524H53.3695V21.415C53.3695 18.5392 53.2661 15.8013 53.1627 15.3412C52.6455 13.3166 50.1632 12.1662 47.6809 12.8334Z" fill="#FAFAFA"/>
<path id="Vector_7" d="M59.4716 12.8332C57.6719 13.3623 56.8859 14.3747 56.8859 16.1692C56.8859 17.9177 57.9822 18.93 61.2092 20.2414C62.8848 20.9086 64.1259 22.151 64.1259 23.1633C64.1259 24.1066 63.2571 25.211 62.3056 25.51C60.8576 25.9472 58.4373 25.6941 56.8445 24.9349C56.5342 24.7968 56.4722 24.8889 56.4722 25.372C56.4722 26.1773 57.3823 26.6144 59.4096 26.7984C63.5674 27.1896 66.0497 24.8889 64.8706 21.7369C64.4983 20.7706 63.7536 20.1724 61.7264 19.2752C58.5614 17.8717 57.9202 17.3196 57.9202 16.0082C57.9202 15.0419 58.2305 14.5587 59.1613 14.1446C60.1956 13.6844 61.8091 13.6614 63.2985 14.0986C64.5397 14.4667 64.7465 14.4207 64.7465 13.7765C64.7465 13.4774 64.519 13.2703 63.9811 13.0863C62.9468 12.7412 60.2577 12.6031 59.4716 12.8332Z" fill="#FAFAFA"/>
<path id="Vector_8" d="M109.015 13.0632C108.208 13.3853 107.629 13.8224 106.987 14.5816C105.808 16.0541 105.436 17.5265 105.539 20.4254C105.601 22.335 105.705 22.7951 106.222 23.8534C107.298 26.0621 109.221 27.0744 111.828 26.8213C113.4 26.6603 113.979 26.3612 113.979 25.694C113.979 25.3259 113.897 25.2569 113.524 25.3719C112.697 25.648 110.525 25.809 109.759 25.648C108.828 25.4409 107.691 24.3596 107.091 23.1172C106.698 22.312 106.636 21.8058 106.636 19.7582C106.636 17.7106 106.698 17.2044 107.091 16.3992C107.649 15.2488 108.539 14.3746 109.552 14.0064C110.297 13.7304 112.531 13.7994 113.483 14.1215C113.814 14.2365 113.959 14.1675 114.041 13.7764C114.186 13.1322 113.524 12.8561 111.6 12.718C110.504 12.626 109.883 12.718 109.015 13.0632Z" fill="#FAFAFA"/>
<path id="Vector_9" d="M125.563 12.8334C124.177 13.3166 123.019 14.3749 122.398 15.7323C121.571 17.5729 121.467 20.8169 122.15 23.0025C123.122 26.0395 125.832 27.5119 128.749 26.5686C131.148 25.7864 132.39 23.4627 132.39 19.7586C132.39 17.2278 131.872 15.5023 130.714 14.2139C129.535 12.9025 127.218 12.2813 125.563 12.8334ZM129.431 14.513C129.949 14.8811 130.445 15.5483 130.755 16.2385C131.19 17.1818 131.252 17.6649 131.252 19.7586C131.252 21.8522 131.19 22.3353 130.755 23.2786C130.052 24.8661 128.997 25.6023 127.239 25.6944C126.122 25.7404 125.729 25.6714 125.046 25.2342C123.536 24.2449 122.833 22.4734 122.812 19.7125C122.812 16.9517 123.639 15.0421 125.253 14.1218C126.246 13.5467 128.397 13.7537 129.431 14.513Z" fill="#FAFAFA"/>
<path id="Vector_10" d="M139.713 12.8794C139.237 12.9945 138.492 13.4546 138.016 13.8918C137.148 14.72 136.941 14.651 136.941 13.5236C136.941 13.2476 136.796 13.0865 136.527 13.0865C136.113 13.0865 136.113 13.2476 136.113 19.8736V26.6606H136.61H137.127L137.189 21.6451C137.251 17.3428 137.313 16.5376 137.644 15.8013C138.182 14.582 139.175 13.9608 140.83 13.8227C142.733 13.6847 143.643 14.1218 144.181 15.4332C144.532 16.3075 144.594 16.9747 144.594 21.5301V26.6606H145.112H145.629V21.5301C145.629 18.5392 145.525 16.0544 145.401 15.5022C144.822 13.2015 142.567 12.1662 139.713 12.8794Z" fill="#FAFAFA"/>
<path id="Vector_11" d="M152.641 12.9943C151.979 13.2013 151.4 13.6615 150.738 14.4437C149.456 15.9622 149.063 17.4576 149.187 20.4255C149.249 22.3351 149.352 22.7953 149.869 23.8536C150.966 26.1083 152.972 27.0976 155.724 26.7985C157.503 26.5914 158.454 26.1313 158.454 25.4871C158.454 25.142 158.371 25.0499 158.123 25.142C157.089 25.5791 155.806 25.7862 154.462 25.6941C153.241 25.6481 152.765 25.5101 152.103 25.0039C151.111 24.2907 150.428 22.8643 150.242 21.1618L150.118 19.9884H154.627H159.137L158.992 18.3089C158.64 13.9376 156.096 11.7979 152.641 12.9943ZM156.179 14.2827C157.047 14.9499 157.668 16.2613 157.792 17.7107L157.896 18.8381H154.007H150.138L150.283 18.0788C150.8 15.1799 152.083 13.7995 154.338 13.7765C155.206 13.7765 155.661 13.9146 156.179 14.2827Z" fill="#FAFAFA"/>
<path id="Vector_12" d="M164.039 12.9944C163.522 13.1784 162.964 13.4545 162.798 13.6155C161.247 14.973 161.495 17.6418 163.253 18.8381C163.626 19.0912 164.784 19.6664 165.798 20.1035C166.832 20.5637 167.845 21.0928 168.094 21.3229C169.604 22.7493 169.128 24.889 167.163 25.5102C165.736 25.9473 163.315 25.6942 161.722 24.935C161.412 24.797 161.35 24.889 161.35 25.3721C161.35 26.1774 162.26 26.6145 164.287 26.7986C167.618 27.1207 169.79 25.8553 169.976 23.5316C170.162 21.4379 169.293 20.3796 166.46 19.1832C164.453 18.355 163.501 17.7798 163.129 17.1816C162.757 16.6065 162.695 15.5711 163.005 14.95C163.501 13.8686 166.294 13.4545 168.301 14.1217C169.231 14.4438 169.335 14.4208 169.583 14.0757C169.935 13.5465 169.666 13.3165 168.238 12.9483C166.728 12.5572 165.239 12.5572 164.039 12.9944Z" fill="#FAFAFA"/>
<path id="Vector_13" d="M79.0203 12.994C78.7307 13.0631 78.0481 13.2701 77.5103 13.4542C76.6415 13.7763 76.538 13.8913 76.6621 14.3054C76.7449 14.5815 76.8069 14.8346 76.8276 14.8576C76.8483 14.9036 77.3655 14.7196 77.9447 14.4665C79.2272 13.9143 81.2751 13.8683 82.1025 14.3514C82.8265 14.7656 83.2816 15.8009 83.4471 17.4804L83.5919 18.7458L80.9028 18.9989C78.5446 19.2059 78.1102 19.2979 77.1379 19.9191C75.8761 20.7244 75.2969 21.7137 75.2969 23.1631C75.2969 25.5789 77.0759 27.0973 79.5375 26.8212C80.82 26.6832 81.7509 26.2 82.6817 25.2107C83.4057 24.4515 83.4885 24.5205 83.6126 25.8549C83.654 26.2921 83.7988 26.5682 84.047 26.6142C84.378 26.6832 84.3987 26.3151 84.3987 21.3226C84.3987 16.192 84.378 15.8929 83.9436 14.9266C83.6747 14.3514 83.1782 13.7072 82.7852 13.4772C82.1025 13.04 80.0753 12.787 79.0203 12.994ZM83.3644 21.0235C83.3644 22.3579 82.9713 23.6923 82.3714 24.4515C81.3785 25.6939 78.6894 26.154 77.4275 25.2798C76.5173 24.6816 76.145 23.3472 76.5587 22.1278C77.0552 20.6093 78.5032 20.1032 82.9093 19.7811C83.323 19.7581 83.3644 19.8501 83.3644 21.0235Z" fill="#FAFAFA"/>
<path id="Vector_14" d="M96.6029 12.994C96.3133 13.0631 95.6306 13.2701 95.0928 13.4542C94.224 13.7763 94.1205 13.8913 94.2447 14.3054C94.3274 14.5815 94.3895 14.8346 94.4102 14.8576C94.4308 14.9036 94.948 14.7196 95.5272 14.4665C96.8097 13.9143 98.8576 13.8683 99.6851 14.3514C100.409 14.7656 100.864 15.8009 101.03 17.4804L101.174 18.7458L98.4853 18.9989C96.1271 19.2059 95.6927 19.2979 94.7204 19.9191C93.4586 20.7244 92.8794 21.7137 92.8794 23.1631C92.8794 25.5789 94.6584 27.0973 97.12 26.8212C98.4025 26.6832 99.3334 26.2 100.264 25.2107C100.988 24.4515 101.071 24.5205 101.195 25.8549C101.236 26.2921 101.381 26.5682 101.63 26.6142C101.96 26.6832 101.981 26.3151 101.981 21.3226C101.981 16.192 101.96 15.8929 101.526 14.9266C101.257 14.3514 100.761 13.7072 100.368 13.4772C99.6851 13.04 97.6578 12.787 96.6029 12.994ZM100.947 21.0235C100.947 22.3579 100.554 23.6923 99.954 24.4515C98.961 25.6939 96.2719 26.154 95.01 25.2798C94.0999 24.6816 93.7275 23.3472 94.1412 22.1278C94.6377 20.6093 96.0857 20.1032 100.492 19.7811C100.906 19.7581 100.947 19.8501 100.947 21.0235Z" fill="#FAFAFA"/>
<path id="Vector_15" d="M117.289 19.8736C117.289 26.4996 117.289 26.6606 117.703 26.6606C118.116 26.6606 118.116 26.4996 118.116 19.8736C118.116 13.2476 118.116 13.0865 117.703 13.0865C117.289 13.0865 117.289 13.2476 117.289 19.8736Z" fill="#FAFAFA"/>
</g>
</svg>
